<svg xmlns="http://www.w3.org/2000/svg" xmlns:xlink="http://www.w3.org/1999/xlink" width="1920" zoomAndPan="magnify" viewBox="0 0 1440 809.999993" height="1080" preserveAspectRatio="xMidYMid meet" version="1.0"><defs><g/><clipPath id="e94124798f"><path d="M 546.5625 127.871094 L 901 127.871094 L 901 245 L 546.5625 245 Z M 546.5625 127.871094 " clip-rule="nonzero"/></clipPath><clipPath id="d45bbbd6db"><path d="M 584.8125 127.871094 L 862.738281 127.871094 C 883.863281 127.871094 900.988281 144.996094 900.988281 166.121094 L 900.988281 206.546875 C 900.988281 227.671875 883.863281 244.796875 862.738281 244.796875 L 584.8125 244.796875 C 563.6875 244.796875 546.5625 227.671875 546.5625 206.546875 L 546.5625 166.121094 C 546.5625 144.996094 563.6875 127.871094 584.8125 127.871094 " clip-rule="nonzero"/></clipPath><clipPath id="511dc0c953"><path d="M 546.574219 127.871094 L 901.3125 127.871094 L 901.3125 244.871094 L 546.574219 244.871094 Z M 546.574219 127.871094 " clip-rule="nonzero"/></clipPath><clipPath id="9b0c39f151"><path d="M 584.855469 127.871094 L 863.019531 127.871094 C 884.160156 127.871094 901.300781 145.007812 901.300781 166.144531 L 901.300781 206.597656 C 901.300781 227.734375 884.160156 244.871094 863.019531 244.871094 L 584.855469 244.871094 C 563.714844 244.871094 546.574219 227.734375 546.574219 206.597656 L 546.574219 166.144531 C 546.574219 145.007812 563.714844 127.871094 584.855469 127.871094 " clip-rule="nonzero"/></clipPath><clipPath id="50ba21b651"><path d="M 0 419.972656 L 237 419.972656 L 237 540.597656 L 0 540.597656 Z M 0 419.972656 " clip-rule="nonzero"/></clipPath><clipPath id="a3e747bf96"><path d="M 174.339844 419.972656 C 208.726562 419.972656 236.597656 446.9375 236.597656 480.195312 C 236.597656 513.457031 208.726562 540.417969 174.339844 540.417969 L 62.257812 540.417969 C 27.875 540.417969 0 513.457031 0 480.195312 C 0 446.9375 27.875 419.972656 62.257812 419.972656 L 174.339844 419.972656 " clip-rule="nonzero"/></clipPath><clipPath id="55bfdef2d1"><path d="M 0 419.976562 L 236.25 419.976562 L 236.25 540.722656 L 0 540.722656 Z M 0 419.976562 " clip-rule="nonzero"/></clipPath><clipPath id="06ce2656c9"><path d="M 174.082031 419.976562 C 208.417969 419.976562 236.25 447.003906 236.25 480.347656 C 236.25 513.691406 208.417969 540.722656 174.082031 540.722656 L 62.167969 540.722656 C 27.832031 540.722656 0 513.691406 0 480.347656 C 0 447.003906 27.832031 419.976562 62.167969 419.976562 L 174.082031 419.976562 " clip-rule="nonzero"/></clipPath><clipPath id="7ca17d2432"><path d="M 223.46875 588.605469 L 440.226562 588.605469 L 440.226562 696.984375 L 223.46875 696.984375 Z M 223.46875 588.605469 " clip-rule="nonzero"/></clipPath><clipPath id="5c1e320875"><path d="M 386.039062 588.605469 C 415.96875 588.605469 440.226562 612.867188 440.226562 642.792969 C 440.226562 672.722656 415.96875 696.984375 386.039062 696.984375 L 277.660156 696.984375 C 247.730469 696.984375 223.46875 672.722656 223.46875 642.792969 C 223.46875 612.867188 247.730469 588.605469 277.660156 588.605469 L 386.039062 588.605469 " clip-rule="nonzero"/></clipPath><clipPath id="af20f73932"><path d="M 223.46875 588.605469 L 440.21875 588.605469 L 440.21875 697.355469 L 223.46875 697.355469 Z M 223.46875 588.605469 " clip-rule="nonzero"/></clipPath><clipPath id="ea84cfe39a"><path d="M 386.03125 588.605469 C 415.957031 588.605469 440.21875 612.949219 440.21875 642.980469 C 440.21875 673.011719 415.957031 697.355469 386.03125 697.355469 L 277.65625 697.355469 C 247.730469 697.355469 223.46875 673.011719 223.46875 642.980469 C 223.46875 612.949219 247.730469 588.605469 277.65625 588.605469 L 386.03125 588.605469 " clip-rule="nonzero"/></clipPath><clipPath id="2eadfe8b07"><path d="M 414.644531 401.671875 L 633.441406 401.671875 L 633.441406 511.070312 L 414.644531 511.070312 Z M 414.644531 401.671875 " clip-rule="nonzero"/></clipPath><clipPath id="b591897640"><path d="M 578.742188 401.671875 C 608.949219 401.671875 633.441406 426.160156 633.441406 456.371094 C 633.441406 486.578125 608.949219 511.070312 578.742188 511.070312 L 469.34375 511.070312 C 439.132812 511.070312 414.644531 486.578125 414.644531 456.371094 C 414.644531 426.160156 439.132812 401.671875 469.34375 401.671875 L 578.742188 401.671875 " clip-rule="nonzero"/></clipPath><clipPath id="f42d0e6044"><path d="M 414.644531 401.671875 L 633.644531 401.671875 L 633.644531 511.171875 L 414.644531 511.171875 Z M 414.644531 401.671875 " clip-rule="nonzero"/></clipPath><clipPath id="78f7dd01da"><path d="M 578.894531 401.671875 C 609.128906 401.671875 633.644531 426.183594 633.644531 456.421875 C 633.644531 486.660156 609.128906 511.171875 578.894531 511.171875 L 469.394531 511.171875 C 439.15625 511.171875 414.644531 486.660156 414.644531 456.421875 C 414.644531 426.183594 439.15625 401.671875 469.394531 401.671875 L 578.894531 401.671875 " clip-rule="nonzero"/></clipPath><clipPath id="fabb6dfa45"><path d="M 1068.816406 591.152344 L 1299.023438 591.152344 L 1299.023438 706.253906 L 1068.816406 706.253906 Z M 1068.816406 591.152344 " clip-rule="nonzero"/></clipPath><clipPath id="81657670c6"><path d="M 1241.472656 591.152344 C 1273.257812 591.152344 1299.023438 616.917969 1299.023438 648.703125 C 1299.023438 680.488281 1273.257812 706.253906 1241.472656 706.253906 L 1126.367188 706.253906 C 1094.582031 706.253906 1068.816406 680.488281 1068.816406 648.703125 C 1068.816406 616.917969 1094.582031 591.152344 1126.367188 591.152344 L 1241.472656 591.152344 " clip-rule="nonzero"/></clipPath><clipPath id="2bc895fc4a"><path d="M 1068.816406 591.152344 L 1299.066406 591.152344 L 1299.066406 705.902344 L 1068.816406 705.902344 Z M 1068.816406 591.152344 " clip-rule="nonzero"/></clipPath><clipPath id="bc344da041"><path d="M 1241.503906 591.152344 C 1273.296875 591.152344 1299.066406 616.839844 1299.066406 648.527344 C 1299.066406 680.214844 1273.296875 705.902344 1241.503906 705.902344 L 1126.378906 705.902344 C 1094.589844 705.902344 1068.816406 680.214844 1068.816406 648.527344 C 1068.816406 616.839844 1094.589844 591.152344 1126.378906 591.152344 L 1241.503906 591.152344 " clip-rule="nonzero"/></clipPath><clipPath id="cca925d8ff"><path d="M 836.894531 402.78125 L 1068.816406 402.78125 L 1068.816406 518.742188 L 836.894531 518.742188 Z M 836.894531 402.78125 " clip-rule="nonzero"/></clipPath><clipPath id="82d37dd27f"><path d="M 1010.835938 402.78125 C 1042.859375 402.78125 1068.816406 428.742188 1068.816406 460.761719 C 1068.816406 492.785156 1042.859375 518.742188 1010.835938 518.742188 L 894.875 518.742188 C 862.851562 518.742188 836.894531 492.785156 836.894531 460.761719 C 836.894531 428.742188 862.851562 402.78125 894.875 402.78125 L 1010.835938 402.78125 " clip-rule="nonzero"/></clipPath><clipPath id="5ce342d2f1"><path d="M 836.894531 402.78125 L 1068.644531 402.78125 L 1068.644531 519.03125 L 836.894531 519.03125 Z M 836.894531 402.78125 " clip-rule="nonzero"/></clipPath><clipPath id="51aa726e9d"><path d="M 1010.707031 402.78125 C 1042.703125 402.78125 1068.644531 428.804688 1068.644531 460.90625 C 1068.644531 493.007812 1042.703125 519.03125 1010.707031 519.03125 L 894.832031 519.03125 C 862.832031 519.03125 836.894531 493.007812 836.894531 460.90625 C 836.894531 428.804688 862.832031 402.78125 894.832031 402.78125 L 1010.707031 402.78125 " clip-rule="nonzero"/></clipPath><clipPath id="88c60e464b"><path d="M 620.066406 589.023438 L 863.308594 589.023438 L 863.308594 710.644531 L 620.066406 710.644531 Z M 620.066406 589.023438 " clip-rule="nonzero"/></clipPath><clipPath id="fdc02175ca"><path d="M 802.5 589.023438 C 836.085938 589.023438 863.308594 616.25 863.308594 649.832031 C 863.308594 683.417969 836.085938 710.644531 802.5 710.644531 L 680.878906 710.644531 C 647.292969 710.644531 620.066406 683.417969 620.066406 649.832031 C 620.066406 616.25 647.292969 589.023438 680.878906 589.023438 L 802.5 589.023438 " clip-rule="nonzero"/></clipPath><clipPath id="2a9bfc54af"><path d="M 620.066406 589.023438 L 863.066406 589.023438 L 863.066406 710.523438 L 620.066406 710.523438 Z M 620.066406 589.023438 " clip-rule="nonzero"/></clipPath><clipPath id="add3caf9e9"><path d="M 802.316406 589.023438 C 835.867188 589.023438 863.066406 616.222656 863.066406 649.773438 C 863.066406 683.324219 835.867188 710.523438 802.316406 710.523438 L 680.816406 710.523438 C 647.265625 710.523438 620.066406 683.324219 620.066406 649.773438 C 620.066406 616.222656 647.265625 589.023438 680.816406 589.023438 L 802.316406 589.023438 " clip-rule="nonzero"/></clipPath><clipPath id="6b50fabc9a"><path d="M 1227.316406 403.828125 L 1440 403.828125 L 1440 510.171875 L 1227.316406 510.171875 Z M 1227.316406 403.828125 " clip-rule="nonzero"/></clipPath><clipPath id="95428eeaf7"><path d="M 1386.828125 403.828125 C 1416.195312 403.828125 1440 427.632812 1440 457 C 1440 486.367188 1416.195312 510.171875 1386.828125 510.171875 L 1280.484375 510.171875 C 1251.121094 510.171875 1227.316406 486.367188 1227.316406 457 C 1227.316406 427.632812 1251.121094 403.828125 1280.484375 403.828125 L 1386.828125 403.828125 " clip-rule="nonzero"/></clipPath><clipPath id="ac35a85d03"><path d="M 1227.320312 403.828125 L 1440 403.828125 L 1440 510.328125 L 1227.320312 510.328125 Z M 1227.320312 403.828125 " clip-rule="nonzero"/></clipPath><clipPath id="1c73d7bae4"><path d="M 1387.0625 403.828125 C 1416.46875 403.828125 1440.308594 427.667969 1440.308594 457.078125 C 1440.308594 486.488281 1416.46875 510.328125 1387.0625 510.328125 L 1280.566406 510.328125 C 1251.160156 510.328125 1227.320312 486.488281 1227.320312 457.078125 C 1227.320312 427.667969 1251.160156 403.828125 1280.566406 403.828125 L 1387.0625 403.828125 " clip-rule="nonzero"/></clipPath></defs><g clip-path="url(#e94124798f)"><g clip-path="url(#d45bbbd6db)"><path fill="#000000" d="M 546.5625 127.871094 L 900.027344 127.871094 L 900.027344 245.691406 L 546.5625 245.691406 Z M 546.5625 127.871094 " fill-opacity="1" fill-rule="nonzero"/></g></g><g clip-path="url(#511dc0c953)"><g clip-path="url(#9b0c39f151)"><path stroke-linecap="butt" transform="matrix(0.750694, 0, 0, 0.750526, 546.574011, 127.871116)" fill="none" stroke-linejoin="miter" d="M 50.994734 -0.0000296019 L 421.537113 -0.0000296019 C 449.698542 -0.0000296019 472.53157 22.832909 472.53157 50.995441 L 472.53157 104.895125 C 472.53157 133.057657 449.698542 155.890595 421.537113 155.890595 L 50.994734 155.890595 C 22.833306 155.890595 0.00027711 133.057657 0.00027711 104.895125 L 0.00027711 50.995441 C 0.00027711 22.832909 22.833306 -0.0000296019 50.994734 -0.0000296019 " stroke="#ffffff" stroke-width="8" stroke-opacity="1" stroke-miterlimit="4"/></g></g><g fill="#ffffff" fill-opacity="1"><g transform="translate(640.394925, 200.621112)"><g><path d="M 12.34375 0.40625 C 10.414062 0.40625 8.695312 0.164062 7.1875 -0.3125 C 5.6875 -0.789062 4.429688 -1.414062 3.421875 -2.1875 C 2.421875 -2.96875 1.65625 -3.816406 1.125 -4.734375 L 4.15625 -8.4375 L 4.625 -8.4375 C 5.46875 -7.1875 6.53125 -6.191406 7.8125 -5.453125 C 9.101562 -4.722656 10.613281 -4.359375 12.34375 -4.359375 C 13.8125 -4.359375 14.921875 -4.671875 15.671875 -5.296875 C 16.421875 -5.921875 16.796875 -6.773438 16.796875 -7.859375 C 16.796875 -8.523438 16.675781 -9.078125 16.4375 -9.515625 C 16.195312 -9.960938 15.796875 -10.34375 15.234375 -10.65625 C 14.671875 -10.976562 13.914062 -11.253906 12.96875 -11.484375 L 9.390625 -12.296875 C 6.890625 -12.867188 5.023438 -13.816406 3.796875 -15.140625 C 2.578125 -16.472656 1.96875 -18.195312 1.96875 -20.3125 C 1.96875 -21.894531 2.359375 -23.28125 3.140625 -24.46875 C 3.929688 -25.664062 5.078125 -26.59375 6.578125 -27.25 C 8.085938 -27.90625 9.890625 -28.234375 11.984375 -28.234375 C 14.128906 -28.234375 15.960938 -27.953125 17.484375 -27.390625 C 19.015625 -26.828125 20.304688 -25.960938 21.359375 -24.796875 L 18.640625 -21.0625 L 18.171875 -21.0625 C 17.378906 -21.882812 16.472656 -22.5 15.453125 -22.90625 C 14.441406 -23.320312 13.285156 -23.53125 11.984375 -23.53125 C 10.472656 -23.53125 9.320312 -23.265625 8.53125 -22.734375 C 7.738281 -22.203125 7.34375 -21.46875 7.34375 -20.53125 C 7.34375 -19.65625 7.617188 -18.957031 8.171875 -18.4375 C 8.722656 -17.914062 9.679688 -17.507812 11.046875 -17.21875 L 14.703125 -16.453125 C 17.398438 -15.878906 19.359375 -14.910156 20.578125 -13.546875 C 21.796875 -12.179688 22.40625 -10.398438 22.40625 -8.203125 C 22.40625 -6.460938 22.03125 -4.945312 21.28125 -3.65625 C 20.539062 -2.375 19.414062 -1.375 17.90625 -0.65625 C 16.394531 0.0507812 14.539062 0.40625 12.34375 0.40625 Z M 12.34375 0.40625 "/></g></g></g><g fill="#ffffff" fill-opacity="1"><g transform="translate(664.305706, 200.621112)"><g><path d="M 5.65625 -23.515625 C 4.707031 -23.515625 3.929688 -23.800781 3.328125 -24.375 C 2.734375 -24.957031 2.4375 -25.707031 2.4375 -26.625 C 2.4375 -27.519531 2.734375 -28.253906 3.328125 -28.828125 C 3.929688 -29.410156 4.707031 -29.703125 5.65625 -29.703125 C 6.289062 -29.703125 6.851562 -29.566406 7.34375 -29.296875 C 7.84375 -29.035156 8.226562 -28.671875 8.5 -28.203125 C 8.769531 -27.742188 8.90625 -27.21875 8.90625 -26.625 C 8.90625 -26.03125 8.769531 -25.492188 8.5 -25.015625 C 8.226562 -24.546875 7.84375 -24.175781 7.34375 -23.90625 C 6.851562 -23.644531 6.289062 -23.515625 5.65625 -23.515625 Z M 3.03125 0 L 3.03125 -21 L 8.296875 -21 L 8.296875 0 Z M 3.03125 0 "/></g></g></g><g fill="#ffffff" fill-opacity="1"><g transform="translate(675.61383, 200.621112)"><g><path d="M 14.484375 -5.015625 L 15.859375 -1.109375 C 15.285156 -0.640625 14.566406 -0.269531 13.703125 0 C 12.847656 0.269531 11.875 0.40625 10.78125 0.40625 C 8.507812 0.40625 6.78125 -0.210938 5.59375 -1.453125 C 4.414062 -2.691406 3.828125 -4.492188 3.828125 -6.859375 L 3.828125 -16.828125 L 0.625 -16.828125 L 0.625 -21.03125 L 3.828125 -21.03125 L 3.828125 -25.125 L 9.109375 -25.96875 L 9.109375 -21.03125 L 15.0625 -21.03125 L 15.0625 -16.828125 L 9.109375 -16.828125 L 9.109375 -7.234375 C 9.109375 -6.191406 9.320312 -5.429688 9.75 -4.953125 C 10.175781 -4.484375 10.804688 -4.25 11.640625 -4.25 C 12.578125 -4.25 13.394531 -4.503906 14.09375 -5.015625 Z M 14.484375 -5.015625 "/></g></g></g><g fill="#ffffff" fill-opacity="1"><g transform="translate(691.928755, 200.621112)"><g><path d="M 20.75 -9.3125 L 7.25 -9.3125 C 7.40625 -7.476562 7.925781 -6.144531 8.8125 -5.3125 C 9.707031 -4.488281 10.921875 -4.078125 12.453125 -4.078125 C 13.660156 -4.078125 14.640625 -4.300781 15.390625 -4.75 C 16.140625 -5.195312 16.742188 -5.878906 17.203125 -6.796875 L 17.59375 -6.796875 L 21.09375 -4.546875 C 20.414062 -3.078125 19.382812 -1.882812 18 -0.96875 C 16.613281 -0.0507812 14.765625 0.40625 12.453125 0.40625 C 10.285156 0.40625 8.410156 -0.00390625 6.828125 -0.828125 C 5.242188 -1.660156 4.023438 -2.890625 3.171875 -4.515625 C 2.316406 -6.148438 1.890625 -8.144531 1.890625 -10.5 C 1.890625 -12.882812 2.335938 -14.894531 3.234375 -16.53125 C 4.140625 -18.164062 5.359375 -19.382812 6.890625 -20.1875 C 8.429688 -21 10.160156 -21.40625 12.078125 -21.40625 C 15.046875 -21.40625 17.316406 -20.617188 18.890625 -19.046875 C 20.472656 -17.472656 21.265625 -15.160156 21.265625 -12.109375 C 21.265625 -11.003906 21.226562 -10.148438 21.15625 -9.546875 Z M 16.21875 -12.71875 C 16.175781 -14.320312 15.804688 -15.488281 15.109375 -16.21875 C 14.421875 -16.945312 13.410156 -17.3125 12.078125 -17.3125 C 9.410156 -17.3125 7.84375 -15.78125 7.375 -12.71875 Z M 16.21875 -12.71875 "/></g></g></g><g fill="#ffffff" fill-opacity="1"><g transform="translate(714.754418, 200.621112)"><g/></g></g><g fill="#ffffff" fill-opacity="1"><g transform="translate(723.949413, 200.621112)"><g><path d="M 8.671875 0 L 3.625 0 L 3.625 -27.84375 L 10.8125 -27.84375 L 17.859375 -7.375 L 18.265625 -7.375 L 25.265625 -27.84375 L 32.296875 -27.84375 L 32.296875 0 L 27.078125 0 L 27.078125 -18.390625 L 26.609375 -18.46875 L 20.171875 0 L 15.578125 0 L 9.140625 -18.46875 L 8.671875 -18.390625 Z M 8.671875 0 "/></g></g></g><g fill="#ffffff" fill-opacity="1"><g transform="translate(759.872702, 200.621112)"><g><path d="M 8.1875 0.40625 C 6.84375 0.40625 5.675781 0.160156 4.6875 -0.328125 C 3.695312 -0.828125 2.929688 -1.554688 2.390625 -2.515625 C 1.859375 -3.484375 1.59375 -4.640625 1.59375 -5.984375 C 1.59375 -7.222656 1.859375 -8.265625 2.390625 -9.109375 C 2.929688 -9.953125 3.757812 -10.644531 4.875 -11.1875 C 5.988281 -11.726562 7.445312 -12.144531 9.25 -12.4375 C 10.507812 -12.632812 11.46875 -12.851562 12.125 -13.09375 C 12.78125 -13.34375 13.21875 -13.617188 13.4375 -13.921875 C 13.664062 -14.222656 13.78125 -14.609375 13.78125 -15.078125 C 13.78125 -15.753906 13.546875 -16.269531 13.078125 -16.625 C 12.609375 -16.976562 11.828125 -17.15625 10.734375 -17.15625 C 9.566406 -17.15625 8.457031 -16.894531 7.40625 -16.375 C 6.351562 -15.851562 5.441406 -15.171875 4.671875 -14.328125 L 4.28125 -14.328125 L 2.078125 -17.65625 C 3.140625 -18.832031 4.4375 -19.75 5.96875 -20.40625 C 7.507812 -21.070312 9.1875 -21.40625 11 -21.40625 C 13.78125 -21.40625 15.789062 -20.8125 17.03125 -19.625 C 18.28125 -18.445312 18.90625 -16.773438 18.90625 -14.609375 L 18.90625 -5.484375 C 18.90625 -4.546875 19.316406 -4.078125 20.140625 -4.078125 C 20.460938 -4.078125 20.773438 -4.132812 21.078125 -4.25 L 21.34375 -4.171875 L 21.734375 -0.5 C 21.441406 -0.300781 21.035156 -0.140625 20.515625 -0.015625 C 19.992188 0.0976562 19.421875 0.15625 18.796875 0.15625 C 17.535156 0.15625 16.550781 -0.0820312 15.84375 -0.5625 C 15.144531 -1.050781 14.644531 -1.8125 14.34375 -2.84375 L 13.9375 -2.875 C 12.90625 -0.6875 10.988281 0.40625 8.1875 0.40625 Z M 9.859375 -3.546875 C 11.078125 -3.546875 12.050781 -3.953125 12.78125 -4.765625 C 13.507812 -5.585938 13.875 -6.726562 13.875 -8.1875 L 13.875 -10.328125 L 13.515625 -10.390625 C 13.203125 -10.140625 12.785156 -9.925781 12.265625 -9.75 C 11.753906 -9.582031 11.019531 -9.414062 10.0625 -9.25 C 8.914062 -9.0625 8.09375 -8.734375 7.59375 -8.265625 C 7.09375 -7.804688 6.84375 -7.148438 6.84375 -6.296875 C 6.84375 -5.398438 7.109375 -4.71875 7.640625 -4.25 C 8.171875 -3.78125 8.910156 -3.546875 9.859375 -3.546875 Z M 9.859375 -3.546875 "/></g></g></g><g fill="#ffffff" fill-opacity="1"><g transform="translate(782.013025, 200.621112)"><g><path d="M 3.03125 8.515625 L 3.03125 -21 L 8.296875 -21 L 8.296875 -18.265625 L 8.703125 -18.1875 C 9.328125 -19.25 10.160156 -20.050781 11.203125 -20.59375 C 12.242188 -21.132812 13.460938 -21.40625 14.859375 -21.40625 C 16.546875 -21.40625 18.019531 -21.003906 19.28125 -20.203125 C 20.539062 -19.398438 21.523438 -18.179688 22.234375 -16.546875 C 22.941406 -14.921875 23.296875 -12.90625 23.296875 -10.5 C 23.296875 -8.09375 22.921875 -6.078125 22.171875 -4.453125 C 21.429688 -2.828125 20.398438 -1.609375 19.078125 -0.796875 C 17.753906 0.00390625 16.234375 0.40625 14.515625 0.40625 C 13.203125 0.40625 12.066406 0.1875 11.109375 -0.25 C 10.160156 -0.695312 9.359375 -1.378906 8.703125 -2.296875 L 8.296875 -2.234375 L 8.296875 8.515625 Z M 13.046875 -4.078125 C 14.617188 -4.078125 15.8125 -4.585938 16.625 -5.609375 C 17.4375 -6.640625 17.84375 -8.269531 17.84375 -10.5 C 17.84375 -12.71875 17.4375 -14.34375 16.625 -15.375 C 15.8125 -16.40625 14.617188 -16.921875 13.046875 -16.921875 C 11.566406 -16.921875 10.394531 -16.390625 9.53125 -15.328125 C 8.675781 -14.265625 8.25 -12.65625 8.25 -10.5 C 8.25 -8.351562 8.675781 -6.742188 9.53125 -5.671875 C 10.394531 -4.609375 11.566406 -4.078125 13.046875 -4.078125 Z M 13.046875 -4.078125 "/></g></g></g><g clip-path="url(#50ba21b651)"><g clip-path="url(#a3e747bf96)"><path fill="#000000" d="M 0 419.972656 L 237.359375 419.972656 L 237.359375 540.597656 L 0 540.597656 Z M 0 419.972656 " fill-opacity="1" fill-rule="nonzero"/></g></g><g clip-path="url(#55bfdef2d1)"><g clip-path="url(#06ce2656c9)"><path stroke-linecap="butt" transform="matrix(0.748923, 0, 0, 0.751897, 0.00000622222, 419.975855)" fill="none" stroke-linejoin="miter" d="M 232.443256 0.000941124 C 278.290363 0.000941124 315.453119 35.946471 315.453119 80.292626 C 315.453119 124.638781 278.290363 160.589506 232.443256 160.589506 L 83.009855 160.589506 C 37.162749 160.589506 -0.00000830823 124.638781 -0.00000830823 80.292626 C -0.00000830823 35.946471 37.162749 0.000941124 83.009855 0.000941124 L 232.443256 0.000941124 " stroke="#ffffff" stroke-width="8" stroke-opacity="1" stroke-miterlimit="4"/></g></g><g fill="#ffffff" fill-opacity="1"><g transform="translate(26.613286, 490.473691)"><g><path d="M 10.6875 -20.703125 C 12.175781 -20.703125 13.445312 -20.429688 14.5 -19.890625 C 15.550781 -19.347656 16.34375 -18.585938 16.875 -17.609375 C 17.414062 -16.628906 17.6875 -15.492188 17.6875 -14.203125 C 17.6875 -12.910156 17.414062 -11.773438 16.875 -10.796875 C 16.34375 -9.828125 15.550781 -9.070312 14.5 -8.53125 C 13.445312 -7.988281 12.175781 -7.71875 10.6875 -7.71875 L 6.78125 -7.71875 L 6.78125 0 L 2.6875 0 L 2.6875 -20.703125 Z M 10.15625 -10.953125 C 12.425781 -10.953125 13.5625 -12.035156 13.5625 -14.203125 C 13.5625 -16.367188 12.425781 -17.453125 10.15625 -17.453125 L 6.78125 -17.453125 L 6.78125 -10.953125 Z M 10.15625 -10.953125 "/></g></g></g><g fill="#ffffff" fill-opacity="1"><g transform="translate(45.526157, 490.473691)"><g><path d="M 2.25 0 L 2.25 -15.625 L 6.0625 -15.625 L 6.0625 -13.296875 L 6.359375 -13.234375 C 6.734375 -14.109375 7.226562 -14.75 7.84375 -15.15625 C 8.457031 -15.5625 9.203125 -15.765625 10.078125 -15.765625 C 10.960938 -15.765625 11.640625 -15.613281 12.109375 -15.3125 L 11.4375 -11.921875 L 11.140625 -11.859375 C 10.890625 -11.960938 10.644531 -12.035156 10.40625 -12.078125 C 10.164062 -12.128906 9.878906 -12.15625 9.546875 -12.15625 C 8.453125 -12.15625 7.613281 -11.769531 7.03125 -11 C 6.457031 -10.238281 6.171875 -9.007812 6.171875 -7.3125 L 6.171875 0 Z M 2.25 0 "/></g></g></g><g fill="#ffffff" fill-opacity="1"><g transform="translate(57.771392, 490.473691)"><g><path d="M 15.4375 -6.921875 L 5.390625 -6.921875 C 5.503906 -5.566406 5.890625 -4.578125 6.546875 -3.953125 C 7.210938 -3.335938 8.117188 -3.03125 9.265625 -3.03125 C 10.160156 -3.03125 10.882812 -3.195312 11.4375 -3.53125 C 12 -3.863281 12.445312 -4.375 12.78125 -5.0625 L 13.078125 -5.0625 L 15.6875 -3.390625 C 15.175781 -2.285156 14.40625 -1.394531 13.375 -0.71875 C 12.351562 -0.0390625 10.984375 0.296875 9.265625 0.296875 C 7.648438 0.296875 6.253906 -0.0078125 5.078125 -0.625 C 3.898438 -1.238281 2.992188 -2.148438 2.359375 -3.359375 C 1.722656 -4.578125 1.40625 -6.054688 1.40625 -7.796875 C 1.40625 -9.578125 1.738281 -11.078125 2.40625 -12.296875 C 3.070312 -13.515625 3.976562 -14.421875 5.125 -15.015625 C 6.269531 -15.617188 7.554688 -15.921875 8.984375 -15.921875 C 11.191406 -15.921875 12.878906 -15.332031 14.046875 -14.15625 C 15.222656 -12.988281 15.8125 -11.269531 15.8125 -9 C 15.8125 -8.1875 15.785156 -7.550781 15.734375 -7.09375 Z M 12.0625 -9.453125 C 12.03125 -10.648438 11.753906 -11.519531 11.234375 -12.0625 C 10.722656 -12.601562 9.972656 -12.875 8.984375 -12.875 C 6.992188 -12.875 5.828125 -11.734375 5.484375 -9.453125 Z M 12.0625 -9.453125 "/></g></g></g><g fill="#ffffff" fill-opacity="1"><g transform="translate(74.744845, 490.473691)"><g><path d="M 7.3125 0.296875 C 6.238281 0.296875 5.257812 0.171875 4.375 -0.078125 C 3.488281 -0.328125 2.726562 -0.671875 2.09375 -1.109375 C 1.46875 -1.546875 1.003906 -2.050781 0.703125 -2.625 L 2.890625 -4.96875 L 3.1875 -4.96875 C 3.707031 -4.269531 4.320312 -3.742188 5.03125 -3.390625 C 5.738281 -3.046875 6.503906 -2.875 7.328125 -2.875 C 8.097656 -2.875 8.675781 -3.007812 9.0625 -3.28125 C 9.445312 -3.5625 9.640625 -3.953125 9.640625 -4.453125 C 9.640625 -4.859375 9.5 -5.191406 9.21875 -5.453125 C 8.945312 -5.722656 8.5 -5.9375 7.875 -6.09375 L 5.8125 -6.578125 C 4.257812 -6.953125 3.125 -7.519531 2.40625 -8.28125 C 1.695312 -9.039062 1.34375 -10.003906 1.34375 -11.171875 C 1.34375 -12.140625 1.585938 -12.984375 2.078125 -13.703125 C 2.578125 -14.421875 3.273438 -14.96875 4.171875 -15.34375 C 5.078125 -15.726562 6.128906 -15.921875 7.328125 -15.921875 C 8.734375 -15.921875 9.898438 -15.71875 10.828125 -15.3125 C 11.753906 -14.90625 12.476562 -14.359375 13 -13.671875 L 10.90625 -11.40625 L 10.625 -11.40625 C 10.1875 -11.90625 9.695312 -12.265625 9.15625 -12.484375 C 8.613281 -12.710938 8.003906 -12.828125 7.328125 -12.828125 C 5.785156 -12.828125 5.015625 -12.347656 5.015625 -11.390625 C 5.015625 -10.984375 5.15625 -10.648438 5.4375 -10.390625 C 5.726562 -10.140625 6.238281 -9.929688 6.96875 -9.765625 L 8.890625 -9.34375 C 10.472656 -9.007812 11.628906 -8.460938 12.359375 -7.703125 C 13.097656 -6.953125 13.46875 -5.945312 13.46875 -4.6875 C 13.46875 -3.695312 13.222656 -2.820312 12.734375 -2.0625 C 12.242188 -1.3125 11.535156 -0.726562 10.609375 -0.3125 C 9.679688 0.09375 8.582031 0.296875 7.3125 0.296875 Z M 7.3125 0.296875 "/></g></g></g><g fill="#ffffff" fill-opacity="1"><g transform="translate(89.141843, 490.473691)"><g><path d="M 15.4375 -6.921875 L 5.390625 -6.921875 C 5.503906 -5.566406 5.890625 -4.578125 6.546875 -3.953125 C 7.210938 -3.335938 8.117188 -3.03125 9.265625 -3.03125 C 10.160156 -3.03125 10.882812 -3.195312 11.4375 -3.53125 C 12 -3.863281 12.445312 -4.375 12.78125 -5.0625 L 13.078125 -5.0625 L 15.6875 -3.390625 C 15.175781 -2.285156 14.40625 -1.394531 13.375 -0.71875 C 12.351562 -0.0390625 10.984375 0.296875 9.265625 0.296875 C 7.648438 0.296875 6.253906 -0.0078125 5.078125 -0.625 C 3.898438 -1.238281 2.992188 -2.148438 2.359375 -3.359375 C 1.722656 -4.578125 1.40625 -6.054688 1.40625 -7.796875 C 1.40625 -9.578125 1.738281 -11.078125 2.40625 -12.296875 C 3.070312 -13.515625 3.976562 -14.421875 5.125 -15.015625 C 6.269531 -15.617188 7.554688 -15.921875 8.984375 -15.921875 C 11.191406 -15.921875 12.878906 -15.332031 14.046875 -14.15625 C 15.222656 -12.988281 15.8125 -11.269531 15.8125 -9 C 15.8125 -8.1875 15.785156 -7.550781 15.734375 -7.09375 Z M 12.0625 -9.453125 C 12.03125 -10.648438 11.753906 -11.519531 11.234375 -12.0625 C 10.722656 -12.601562 9.972656 -12.875 8.984375 -12.875 C 6.992188 -12.875 5.828125 -11.734375 5.484375 -9.453125 Z M 12.0625 -9.453125 "/></g></g></g><g fill="#ffffff" fill-opacity="1"><g transform="translate(106.115296, 490.473691)"><g><path d="M 2.25 0 L 2.25 -15.625 L 6.015625 -15.625 L 6.015625 -13.328125 L 6.3125 -13.25 C 7.289062 -15.03125 8.867188 -15.921875 11.046875 -15.921875 C 12.847656 -15.921875 14.171875 -15.425781 15.015625 -14.4375 C 15.859375 -13.457031 16.28125 -12.03125 16.28125 -10.15625 L 16.28125 0 L 12.359375 0 L 12.359375 -9.671875 C 12.359375 -10.710938 12.148438 -11.460938 11.734375 -11.921875 C 11.316406 -12.378906 10.65625 -12.609375 9.75 -12.609375 C 8.625 -12.609375 7.742188 -12.242188 7.109375 -11.515625 C 6.484375 -10.785156 6.171875 -9.640625 6.171875 -8.078125 L 6.171875 0 Z M 2.25 0 "/></g></g></g><g fill="#ffffff" fill-opacity="1"><g transform="translate(124.405288, 490.473691)"><g><path d="M 10.78125 -3.71875 L 11.796875 -0.828125 C 11.367188 -0.472656 10.832031 -0.195312 10.1875 0 C 9.550781 0.195312 8.828125 0.296875 8.015625 0.296875 C 6.328125 0.296875 5.039062 -0.160156 4.15625 -1.078125 C 3.28125 -2.003906 2.84375 -3.34375 2.84375 -5.09375 L 2.84375 -12.515625 L 0.46875 -12.515625 L 0.46875 -15.640625 L 2.84375 -15.640625 L 2.84375 -18.671875 L 6.765625 -19.3125 L 6.765625 -15.640625 L 11.203125 -15.640625 L 11.203125 -12.515625 L 6.765625 -12.515625 L 6.765625 -5.375 C 6.765625 -4.601562 6.925781 -4.039062 7.25 -3.6875 C 7.570312 -3.332031 8.039062 -3.15625 8.65625 -3.15625 C 9.351562 -3.15625 9.960938 -3.34375 10.484375 -3.71875 Z M 10.78125 -3.71875 "/></g></g></g><g fill="#ffffff" fill-opacity="1"><g transform="translate(136.537272, 490.473691)"><g><path d="M 6.09375 0.296875 C 5.09375 0.296875 4.222656 0.113281 3.484375 -0.25 C 2.742188 -0.625 2.175781 -1.164062 1.78125 -1.875 C 1.382812 -2.59375 1.1875 -3.453125 1.1875 -4.453125 C 1.1875 -5.367188 1.382812 -6.140625 1.78125 -6.765625 C 2.175781 -7.398438 2.789062 -7.914062 3.625 -8.3125 C 4.457031 -8.71875 5.539062 -9.03125 6.875 -9.25 C 7.8125 -9.394531 8.523438 -9.554688 9.015625 -9.734375 C 9.503906 -9.921875 9.832031 -10.125 10 -10.34375 C 10.164062 -10.570312 10.25 -10.863281 10.25 -11.21875 C 10.25 -11.71875 10.070312 -12.097656 9.71875 -12.359375 C 9.375 -12.628906 8.796875 -12.765625 7.984375 -12.765625 C 7.117188 -12.765625 6.289062 -12.566406 5.5 -12.171875 C 4.71875 -11.785156 4.039062 -11.28125 3.46875 -10.65625 L 3.1875 -10.65625 L 1.546875 -13.125 C 2.335938 -14 3.300781 -14.679688 4.4375 -15.171875 C 5.582031 -15.671875 6.832031 -15.921875 8.1875 -15.921875 C 10.25 -15.921875 11.742188 -15.476562 12.671875 -14.59375 C 13.597656 -13.71875 14.0625 -12.472656 14.0625 -10.859375 L 14.0625 -4.078125 C 14.0625 -3.378906 14.367188 -3.03125 14.984375 -3.03125 C 15.210938 -3.03125 15.441406 -3.070312 15.671875 -3.15625 L 15.875 -3.09375 L 16.15625 -0.375 C 15.9375 -0.226562 15.632812 -0.109375 15.25 -0.015625 C 14.863281 0.0664062 14.4375 0.109375 13.96875 0.109375 C 13.039062 0.109375 12.3125 -0.0664062 11.78125 -0.421875 C 11.257812 -0.785156 10.882812 -1.347656 10.65625 -2.109375 L 10.359375 -2.140625 C 9.597656 -0.515625 8.175781 0.296875 6.09375 0.296875 Z M 7.328125 -2.640625 C 8.234375 -2.640625 8.957031 -2.941406 9.5 -3.546875 C 10.050781 -4.148438 10.328125 -5 10.328125 -6.09375 L 10.328125 -7.671875 L 10.046875 -7.734375 C 9.816406 -7.546875 9.507812 -7.382812 9.125 -7.25 C 8.738281 -7.125 8.191406 -7 7.484375 -6.875 C 6.628906 -6.738281 6.015625 -6.5 5.640625 -6.15625 C 5.265625 -5.8125 5.078125 -5.320312 5.078125 -4.6875 C 5.078125 -4.019531 5.273438 -3.507812 5.671875 -3.15625 C 6.066406 -2.8125 6.617188 -2.640625 7.328125 -2.640625 Z M 7.328125 -2.640625 "/></g></g></g><g fill="#ffffff" fill-opacity="1"><g transform="translate(153.001097, 490.473691)"><g><path d="M 10.78125 -3.71875 L 11.796875 -0.828125 C 11.367188 -0.472656 10.832031 -0.195312 10.1875 0 C 9.550781 0.195312 8.828125 0.296875 8.015625 0.296875 C 6.328125 0.296875 5.039062 -0.160156 4.15625 -1.078125 C 3.28125 -2.003906 2.84375 -3.34375 2.84375 -5.09375 L 2.84375 -12.515625 L 0.46875 -12.515625 L 0.46875 -15.640625 L 2.84375 -15.640625 L 2.84375 -18.671875 L 6.765625 -19.3125 L 6.765625 -15.640625 L 11.203125 -15.640625 L 11.203125 -12.515625 L 6.765625 -12.515625 L 6.765625 -5.375 C 6.765625 -4.601562 6.925781 -4.039062 7.25 -3.6875 C 7.570312 -3.332031 8.039062 -3.15625 8.65625 -3.15625 C 9.351562 -3.15625 9.960938 -3.34375 10.484375 -3.71875 Z M 10.78125 -3.71875 "/></g></g></g><g fill="#ffffff" fill-opacity="1"><g transform="translate(165.133081, 490.473691)"><g><path d="M 4.203125 -17.484375 C 3.492188 -17.484375 2.914062 -17.695312 2.46875 -18.125 C 2.03125 -18.5625 1.8125 -19.117188 1.8125 -19.796875 C 1.8125 -20.460938 2.03125 -21.007812 2.46875 -21.4375 C 2.914062 -21.875 3.492188 -22.09375 4.203125 -22.09375 C 4.671875 -22.09375 5.085938 -21.992188 5.453125 -21.796875 C 5.828125 -21.597656 6.113281 -21.328125 6.3125 -20.984375 C 6.519531 -20.640625 6.625 -20.242188 6.625 -19.796875 C 6.625 -19.347656 6.519531 -18.945312 6.3125 -18.59375 C 6.113281 -18.25 5.828125 -17.976562 5.453125 -17.78125 C 5.085938 -17.582031 4.671875 -17.484375 4.203125 -17.484375 Z M 2.25 0 L 2.25 -15.625 L 6.171875 -15.625 L 6.171875 0 Z M 2.25 0 "/></g></g></g><g fill="#ffffff" fill-opacity="1"><g transform="translate(173.541947, 490.473691)"><g><path d="M 9.078125 0.296875 C 7.546875 0.296875 6.203125 -0.015625 5.046875 -0.640625 C 3.890625 -1.273438 2.992188 -2.195312 2.359375 -3.40625 C 1.722656 -4.613281 1.40625 -6.078125 1.40625 -7.796875 C 1.40625 -9.515625 1.722656 -10.984375 2.359375 -12.203125 C 2.992188 -13.421875 3.890625 -14.34375 5.046875 -14.96875 C 6.203125 -15.601562 7.546875 -15.921875 9.078125 -15.921875 C 10.609375 -15.921875 11.953125 -15.601562 13.109375 -14.96875 C 14.265625 -14.34375 15.160156 -13.421875 15.796875 -12.203125 C 16.441406 -10.984375 16.765625 -9.515625 16.765625 -7.796875 C 16.765625 -6.078125 16.441406 -4.613281 15.796875 -3.40625 C 15.160156 -2.195312 14.265625 -1.273438 13.109375 -0.640625 C 11.953125 -0.015625 10.609375 0.296875 9.078125 0.296875 Z M 9.078125 -3.03125 C 11.503906 -3.03125 12.71875 -4.617188 12.71875 -7.796875 C 12.71875 -9.453125 12.40625 -10.664062 11.78125 -11.4375 C 11.15625 -12.207031 10.253906 -12.59375 9.078125 -12.59375 C 6.648438 -12.59375 5.4375 -10.992188 5.4375 -7.796875 C 5.4375 -4.617188 6.648438 -3.03125 9.078125 -3.03125 Z M 9.078125 -3.03125 "/></g></g></g><g fill="#ffffff" fill-opacity="1"><g transform="translate(191.690376, 490.473691)"><g><path d="M 2.25 0 L 2.25 -15.625 L 6.015625 -15.625 L 6.015625 -13.328125 L 6.3125 -13.25 C 7.289062 -15.03125 8.867188 -15.921875 11.046875 -15.921875 C 12.847656 -15.921875 14.171875 -15.425781 15.015625 -14.4375 C 15.859375 -13.457031 16.28125 -12.03125 16.28125 -10.15625 L 16.28125 0 L 12.359375 0 L 12.359375 -9.671875 C 12.359375 -10.710938 12.148438 -11.460938 11.734375 -11.921875 C 11.316406 -12.378906 10.65625 -12.609375 9.75 -12.609375 C 8.625 -12.609375 7.742188 -12.242188 7.109375 -11.515625 C 6.484375 -10.785156 6.171875 -9.640625 6.171875 -8.078125 L 6.171875 0 Z M 2.25 0 "/></g></g></g><g clip-path="url(#7ca17d2432)"><g clip-path="url(#5c1e320875)"><path fill="#000000" d="M 223.46875 588.605469 L 440.226562 588.605469 L 440.226562 696.984375 L 223.46875 696.984375 Z M 223.46875 588.605469 " fill-opacity="1" fill-rule="nonzero"/></g></g><g clip-path="url(#af20f73932)"><g clip-path="url(#ea84cfe39a)"><path stroke-linecap="butt" transform="matrix(0.75, 0, 0, 0.752595, 223.468985, 588.604334)" fill="none" stroke-linejoin="miter" d="M 216.749698 0.00150727 C 256.650742 0.00150727 288.999702 32.347916 288.999702 72.25151 C 288.999702 112.155103 256.650742 144.501512 216.749698 144.501512 L 72.249691 144.501512 C 32.348647 144.501512 -0.000312773 112.155103 -0.000312773 72.25151 C -0.000312773 32.347916 32.348647 0.00150727 72.249691 0.00150727 L 216.749698 0.00150727 " stroke="#ffffff" stroke-width="8" stroke-opacity="1" stroke-miterlimit="4"/></g></g><g fill="#ffffff" fill-opacity="1"><g transform="translate(289.363513, 653.104331)"><g><path d="M 16.0625 -12.921875 L 16.0625 -20.703125 L 20.140625 -20.703125 L 20.140625 0 L 16.0625 0 L 16.0625 -9.4375 L 6.78125 -9.4375 L 6.78125 0 L 2.6875 0 L 2.6875 -20.703125 L 6.78125 -20.703125 L 6.78125 -12.921875 Z M 16.0625 -12.921875 "/></g></g></g><g fill="#ffffff" fill-opacity="1"><g transform="translate(312.19769, 653.104331)"><g><path d="M 9.078125 0.296875 C 7.546875 0.296875 6.203125 -0.015625 5.046875 -0.640625 C 3.890625 -1.273438 2.992188 -2.195312 2.359375 -3.40625 C 1.722656 -4.613281 1.40625 -6.078125 1.40625 -7.796875 C 1.40625 -9.515625 1.722656 -10.984375 2.359375 -12.203125 C 2.992188 -13.421875 3.890625 -14.34375 5.046875 -14.96875 C 6.203125 -15.601562 7.546875 -15.921875 9.078125 -15.921875 C 10.609375 -15.921875 11.953125 -15.601562 13.109375 -14.96875 C 14.265625 -14.34375 15.160156 -13.421875 15.796875 -12.203125 C 16.441406 -10.984375 16.765625 -9.515625 16.765625 -7.796875 C 16.765625 -6.078125 16.441406 -4.613281 15.796875 -3.40625 C 15.160156 -2.195312 14.265625 -1.273438 13.109375 -0.640625 C 11.953125 -0.015625 10.609375 0.296875 9.078125 0.296875 Z M 9.078125 -3.03125 C 11.503906 -3.03125 12.71875 -4.617188 12.71875 -7.796875 C 12.71875 -9.453125 12.40625 -10.664062 11.78125 -11.4375 C 11.15625 -12.207031 10.253906 -12.59375 9.078125 -12.59375 C 6.648438 -12.59375 5.4375 -10.992188 5.4375 -7.796875 C 5.4375 -4.617188 6.648438 -3.03125 9.078125 -3.03125 Z M 9.078125 -3.03125 "/></g></g></g><g fill="#ffffff" fill-opacity="1"><g transform="translate(330.346119, 653.104331)"><g><path d="M 2.25 0 L 2.25 -15.625 L 6.015625 -15.625 L 6.015625 -13.515625 L 6.3125 -13.46875 C 6.820312 -14.3125 7.421875 -14.929688 8.109375 -15.328125 C 8.796875 -15.722656 9.671875 -15.921875 10.734375 -15.921875 C 11.910156 -15.921875 12.859375 -15.6875 13.578125 -15.21875 C 14.296875 -14.75 14.820312 -14.066406 15.15625 -13.171875 L 15.453125 -13.171875 C 15.929688 -14.109375 16.550781 -14.800781 17.3125 -15.25 C 18.070312 -15.695312 19.019531 -15.921875 20.15625 -15.921875 C 23.382812 -15.921875 25 -14.113281 25 -10.5 L 25 0 L 21.078125 0 L 21.078125 -10.015625 C 21.078125 -10.929688 20.898438 -11.59375 20.546875 -12 C 20.191406 -12.40625 19.613281 -12.609375 18.8125 -12.609375 C 16.664062 -12.609375 15.59375 -11.164062 15.59375 -8.28125 L 15.59375 0 L 11.671875 0 L 11.671875 -10.015625 C 11.671875 -10.929688 11.488281 -11.59375 11.125 -12 C 10.757812 -12.40625 10.179688 -12.609375 9.390625 -12.609375 C 8.378906 -12.609375 7.585938 -12.269531 7.015625 -11.59375 C 6.453125 -10.914062 6.171875 -9.84375 6.171875 -8.375 L 6.171875 0 Z M 2.25 0 "/></g></g></g><g fill="#ffffff" fill-opacity="1"><g transform="translate(357.356417, 653.104331)"><g><path d="M 15.4375 -6.921875 L 5.390625 -6.921875 C 5.503906 -5.566406 5.890625 -4.578125 6.546875 -3.953125 C 7.210938 -3.335938 8.117188 -3.03125 9.265625 -3.03125 C 10.160156 -3.03125 10.882812 -3.195312 11.4375 -3.53125 C 12 -3.863281 12.445312 -4.375 12.78125 -5.0625 L 13.078125 -5.0625 L 15.6875 -3.390625 C 15.175781 -2.285156 14.40625 -1.394531 13.375 -0.71875 C 12.351562 -0.0390625 10.984375 0.296875 9.265625 0.296875 C 7.648438 0.296875 6.253906 -0.0078125 5.078125 -0.625 C 3.898438 -1.238281 2.992188 -2.148438 2.359375 -3.359375 C 1.722656 -4.578125 1.40625 -6.054688 1.40625 -7.796875 C 1.40625 -9.578125 1.738281 -11.078125 2.40625 -12.296875 C 3.070312 -13.515625 3.976562 -14.421875 5.125 -15.015625 C 6.269531 -15.617188 7.554688 -15.921875 8.984375 -15.921875 C 11.191406 -15.921875 12.878906 -15.332031 14.046875 -14.15625 C 15.222656 -12.988281 15.8125 -11.269531 15.8125 -9 C 15.8125 -8.1875 15.785156 -7.550781 15.734375 -7.09375 Z M 12.0625 -9.453125 C 12.03125 -10.648438 11.753906 -11.519531 11.234375 -12.0625 C 10.722656 -12.601562 9.972656 -12.875 8.984375 -12.875 C 6.992188 -12.875 5.828125 -11.734375 5.484375 -9.453125 Z M 12.0625 -9.453125 "/></g></g></g><g clip-path="url(#2eadfe8b07)"><g clip-path="url(#b591897640)"><path fill="#000000" d="M 414.644531 401.671875 L 633.441406 401.671875 L 633.441406 511.070312 L 414.644531 511.070312 Z M 414.644531 401.671875 " fill-opacity="1" fill-rule="nonzero"/></g></g><g clip-path="url(#f42d0e6044)"><g clip-path="url(#78f7dd01da)"><path stroke-linecap="butt" transform="matrix(0.750723, 0, 0, 0.750723, 414.642969, 401.670907)" fill="none" stroke-linejoin="miter" d="M 218.791151 0.00128943 C 259.064824 0.00128943 291.720841 32.652103 291.720841 72.93098 C 291.720841 113.209856 259.064824 145.86067 218.791151 145.86067 L 72.931771 145.86067 C 32.652894 145.86067 0.00208051 113.209856 0.00208051 72.93098 C 0.00208051 32.652103 32.652894 0.00128943 72.931771 0.00128943 L 218.791151 0.00128943 " stroke="#ffffff" stroke-width="8" stroke-opacity="1" stroke-miterlimit="4"/></g></g><g fill="#ffffff" fill-opacity="1"><g transform="translate(473.049216, 466.920904)"><g><path d="M 10.046875 0.296875 C 8.328125 0.296875 6.835938 -0.09375 5.578125 -0.875 C 4.316406 -1.664062 3.34375 -2.859375 2.65625 -4.453125 C 1.96875 -6.046875 1.625 -8.007812 1.625 -10.34375 C 1.625 -12.707031 2.035156 -14.679688 2.859375 -16.265625 C 3.679688 -17.859375 4.820312 -19.046875 6.28125 -19.828125 C 7.738281 -20.609375 9.429688 -21 11.359375 -21 C 13.335938 -21 15.023438 -20.628906 16.421875 -19.890625 C 17.816406 -19.160156 18.800781 -18.066406 19.375 -16.609375 L 16.390625 -14.796875 L 16.03125 -14.8125 C 15.601562 -15.738281 15.003906 -16.410156 14.234375 -16.828125 C 13.460938 -17.253906 12.503906 -17.46875 11.359375 -17.46875 C 9.578125 -17.46875 8.210938 -16.90625 7.265625 -15.78125 C 6.316406 -14.65625 5.84375 -12.84375 5.84375 -10.34375 C 5.84375 -7.84375 6.285156 -6.023438 7.171875 -4.890625 C 8.054688 -3.765625 9.363281 -3.203125 11.09375 -3.203125 C 12.582031 -3.203125 13.679688 -3.535156 14.390625 -4.203125 C 15.097656 -4.878906 15.453125 -5.878906 15.453125 -7.203125 L 15.453125 -8.09375 L 10.546875 -8.09375 L 10.546875 -11.421875 L 19.515625 -11.421875 L 19.515625 0 L 15.609375 0 L 15.609375 -2.78125 L 15.3125 -2.8125 C 14.882812 -1.820312 14.238281 -1.054688 13.375 -0.515625 C 12.507812 0.0234375 11.398438 0.296875 10.046875 0.296875 Z M 10.046875 0.296875 "/></g></g></g><g fill="#ffffff" fill-opacity="1"><g transform="translate(494.637636, 466.920904)"><g><path d="M 6.09375 0.296875 C 5.09375 0.296875 4.222656 0.113281 3.484375 -0.25 C 2.742188 -0.625 2.175781 -1.164062 1.78125 -1.875 C 1.382812 -2.59375 1.1875 -3.453125 1.1875 -4.453125 C 1.1875 -5.367188 1.382812 -6.140625 1.78125 -6.765625 C 2.175781 -7.398438 2.789062 -7.914062 3.625 -8.3125 C 4.457031 -8.71875 5.539062 -9.03125 6.875 -9.25 C 7.8125 -9.394531 8.523438 -9.554688 9.015625 -9.734375 C 9.503906 -9.921875 9.832031 -10.125 10 -10.34375 C 10.164062 -10.570312 10.25 -10.863281 10.25 -11.21875 C 10.25 -11.71875 10.070312 -12.097656 9.71875 -12.359375 C 9.375 -12.628906 8.796875 -12.765625 7.984375 -12.765625 C 7.117188 -12.765625 6.289062 -12.566406 5.5 -12.171875 C 4.71875 -11.785156 4.039062 -11.28125 3.46875 -10.65625 L 3.1875 -10.65625 L 1.546875 -13.125 C 2.335938 -14 3.300781 -14.679688 4.4375 -15.171875 C 5.582031 -15.671875 6.832031 -15.921875 8.1875 -15.921875 C 10.25 -15.921875 11.742188 -15.476562 12.671875 -14.59375 C 13.597656 -13.71875 14.0625 -12.472656 14.0625 -10.859375 L 14.0625 -4.078125 C 14.0625 -3.378906 14.367188 -3.03125 14.984375 -3.03125 C 15.210938 -3.03125 15.441406 -3.070312 15.671875 -3.15625 L 15.875 -3.09375 L 16.15625 -0.375 C 15.9375 -0.226562 15.632812 -0.109375 15.25 -0.015625 C 14.863281 0.0664062 14.4375 0.109375 13.96875 0.109375 C 13.039062 0.109375 12.3125 -0.0664062 11.78125 -0.421875 C 11.257812 -0.785156 10.882812 -1.347656 10.65625 -2.109375 L 10.359375 -2.140625 C 9.597656 -0.515625 8.175781 0.296875 6.09375 0.296875 Z M 7.328125 -2.640625 C 8.234375 -2.640625 8.957031 -2.941406 9.5 -3.546875 C 10.050781 -4.148438 10.328125 -5 10.328125 -6.09375 L 10.328125 -7.671875 L 10.046875 -7.734375 C 9.816406 -7.546875 9.507812 -7.382812 9.125 -7.25 C 8.738281 -7.125 8.191406 -7 7.484375 -6.875 C 6.628906 -6.738281 6.015625 -6.5 5.640625 -6.15625 C 5.265625 -5.8125 5.078125 -5.320312 5.078125 -4.6875 C 5.078125 -4.019531 5.273438 -3.507812 5.671875 -3.15625 C 6.066406 -2.8125 6.617188 -2.640625 7.328125 -2.640625 Z M 7.328125 -2.640625 "/></g></g></g><g fill="#ffffff" fill-opacity="1"><g transform="translate(511.101461, 466.920904)"><g><path d="M 6.484375 0.296875 C 5.078125 0.296875 4.003906 -0.0820312 3.265625 -0.84375 C 2.523438 -1.601562 2.15625 -2.757812 2.15625 -4.3125 L 2.15625 -21.890625 L 6.078125 -21.890625 L 6.078125 -4.453125 C 6.078125 -3.503906 6.472656 -3.03125 7.265625 -3.03125 C 7.492188 -3.03125 7.734375 -3.066406 7.984375 -3.140625 L 8.1875 -3.09375 L 8.53125 -0.078125 C 8.320312 0.0351562 8.035156 0.125 7.671875 0.1875 C 7.316406 0.257812 6.921875 0.296875 6.484375 0.296875 Z M 6.484375 0.296875 "/></g></g></g><g fill="#ffffff" fill-opacity="1"><g transform="translate(520.076581, 466.920904)"><g><path d="M 6.484375 0.296875 C 5.078125 0.296875 4.003906 -0.0820312 3.265625 -0.84375 C 2.523438 -1.601562 2.15625 -2.757812 2.15625 -4.3125 L 2.15625 -21.890625 L 6.078125 -21.890625 L 6.078125 -4.453125 C 6.078125 -3.503906 6.472656 -3.03125 7.265625 -3.03125 C 7.492188 -3.03125 7.734375 -3.066406 7.984375 -3.140625 L 8.1875 -3.09375 L 8.53125 -0.078125 C 8.320312 0.0351562 8.035156 0.125 7.671875 0.1875 C 7.316406 0.257812 6.921875 0.296875 6.484375 0.296875 Z M 6.484375 0.296875 "/></g></g></g><g fill="#ffffff" fill-opacity="1"><g transform="translate(529.051701, 466.920904)"><g><path d="M 15.4375 -6.921875 L 5.390625 -6.921875 C 5.503906 -5.566406 5.890625 -4.578125 6.546875 -3.953125 C 7.210938 -3.335938 8.117188 -3.03125 9.265625 -3.03125 C 10.160156 -3.03125 10.882812 -3.195312 11.4375 -3.53125 C 12 -3.863281 12.445312 -4.375 12.78125 -5.0625 L 13.078125 -5.0625 L 15.6875 -3.390625 C 15.175781 -2.285156 14.40625 -1.394531 13.375 -0.71875 C 12.351562 -0.0390625 10.984375 0.296875 9.265625 0.296875 C 7.648438 0.296875 6.253906 -0.0078125 5.078125 -0.625 C 3.898438 -1.238281 2.992188 -2.148438 2.359375 -3.359375 C 1.722656 -4.578125 1.40625 -6.054688 1.40625 -7.796875 C 1.40625 -9.578125 1.738281 -11.078125 2.40625 -12.296875 C 3.070312 -13.515625 3.976562 -14.421875 5.125 -15.015625 C 6.269531 -15.617188 7.554688 -15.921875 8.984375 -15.921875 C 11.191406 -15.921875 12.878906 -15.332031 14.046875 -14.15625 C 15.222656 -12.988281 15.8125 -11.269531 15.8125 -9 C 15.8125 -8.1875 15.785156 -7.550781 15.734375 -7.09375 Z M 12.0625 -9.453125 C 12.03125 -10.648438 11.753906 -11.519531 11.234375 -12.0625 C 10.722656 -12.601562 9.972656 -12.875 8.984375 -12.875 C 6.992188 -12.875 5.828125 -11.734375 5.484375 -9.453125 Z M 12.0625 -9.453125 "/></g></g></g><g fill="#ffffff" fill-opacity="1"><g transform="translate(546.025153, 466.920904)"><g><path d="M 2.25 0 L 2.25 -15.625 L 6.0625 -15.625 L 6.0625 -13.296875 L 6.359375 -13.234375 C 6.734375 -14.109375 7.226562 -14.75 7.84375 -15.15625 C 8.457031 -15.5625 9.203125 -15.765625 10.078125 -15.765625 C 10.960938 -15.765625 11.640625 -15.613281 12.109375 -15.3125 L 11.4375 -11.921875 L 11.140625 -11.859375 C 10.890625 -11.960938 10.644531 -12.035156 10.40625 -12.078125 C 10.164062 -12.128906 9.878906 -12.15625 9.546875 -12.15625 C 8.453125 -12.15625 7.613281 -11.769531 7.03125 -11 C 6.457031 -10.238281 6.171875 -9.007812 6.171875 -7.3125 L 6.171875 0 Z M 2.25 0 "/></g></g></g><g fill="#ffffff" fill-opacity="1"><g transform="translate(558.270388, 466.920904)"><g><path d="M 3.453125 6.625 C 2.785156 6.625 2.179688 6.570312 1.640625 6.46875 C 1.097656 6.363281 0.65625 6.226562 0.3125 6.0625 L 0.9375 2.890625 L 1.1875 2.796875 C 1.425781 2.921875 1.71875 3.019531 2.0625 3.09375 C 2.414062 3.175781 2.773438 3.21875 3.140625 3.21875 C 3.773438 3.21875 4.300781 3.132812 4.71875 2.96875 C 5.144531 2.800781 5.503906 2.523438 5.796875 2.140625 C 6.085938 1.765625 6.347656 1.234375 6.578125 0.546875 L 0.34375 -15.625 L 4.453125 -15.625 L 8.328125 -4.765625 L 8.671875 -4.765625 L 12.453125 -15.625 L 16.4375 -15.625 L 10.171875 0.984375 C 9.671875 2.316406 9.117188 3.390625 8.515625 4.203125 C 7.921875 5.023438 7.210938 5.632812 6.390625 6.03125 C 5.578125 6.425781 4.597656 6.625 3.453125 6.625 Z M 3.453125 6.625 "/></g></g></g><g clip-path="url(#fabb6dfa45)"><g clip-path="url(#81657670c6)"><path fill="#000000" d="M 1068.816406 591.152344 L 1299.023438 591.152344 L 1299.023438 706.253906 L 1068.816406 706.253906 Z M 1068.816406 591.152344 " fill-opacity="1" fill-rule="nonzero"/></g></g><g clip-path="url(#2bc895fc4a)"><g clip-path="url(#bc344da041)"><path stroke-linecap="butt" transform="matrix(0.750153, 0, 0, 0.747709, 1068.816744, 591.151406)" fill="none" stroke-linejoin="miter" d="M 230.202688 0.00125382 C 272.584685 0.00125382 306.937067 34.356187 306.937067 76.73563 C 306.937067 119.115073 272.584685 153.470007 230.202688 153.470007 L 76.733929 153.470007 C 34.357138 153.470007 -0.000450844 119.115073 -0.000450844 76.73563 C -0.000450844 34.356187 34.357138 0.00125382 76.733929 0.00125382 L 230.202688 0.00125382 " stroke="#ffffff" stroke-width="8" stroke-opacity="1" stroke-miterlimit="4"/></g></g><g fill="#ffffff" fill-opacity="1"><g transform="translate(1152.44174, 659.401403)"><g><path d="M 16.453125 5.15625 C 14.628906 5.15625 13.113281 4.710938 11.90625 3.828125 C 10.707031 2.953125 9.898438 1.734375 9.484375 0.171875 C 7.910156 -0.0546875 6.535156 -0.59375 5.359375 -1.4375 C 4.179688 -2.28125 3.265625 -3.445312 2.609375 -4.9375 C 1.953125 -6.425781 1.625 -8.226562 1.625 -10.34375 C 1.625 -12.71875 2.035156 -14.695312 2.859375 -16.28125 C 3.679688 -17.875 4.816406 -19.054688 6.265625 -19.828125 C 7.710938 -20.609375 9.382812 -21 11.28125 -21 C 13.175781 -21 14.847656 -20.613281 16.296875 -19.84375 C 17.742188 -19.070312 18.875 -17.890625 19.6875 -16.296875 C 20.507812 -14.703125 20.921875 -12.71875 20.921875 -10.34375 C 20.921875 -7.25 20.253906 -4.875 18.921875 -3.21875 C 17.597656 -1.5625 15.738281 -0.53125 13.34375 -0.125 L 13.265625 0.15625 C 13.554688 0.65625 13.992188 1.039062 14.578125 1.3125 C 15.160156 1.582031 15.835938 1.71875 16.609375 1.71875 C 17.234375 1.71875 17.796875 1.632812 18.296875 1.46875 L 18.578125 1.53125 L 19.15625 4.734375 C 18.851562 4.847656 18.445312 4.945312 17.9375 5.03125 C 17.425781 5.113281 16.929688 5.15625 16.453125 5.15625 Z M 11.28125 -3.25 C 13.039062 -3.25 14.378906 -3.8125 15.296875 -4.9375 C 16.222656 -6.070312 16.6875 -7.875 16.6875 -10.34375 C 16.6875 -12.820312 16.222656 -14.625 15.296875 -15.75 C 14.378906 -16.882812 13.039062 -17.453125 11.28125 -17.453125 C 9.519531 -17.453125 8.171875 -16.882812 7.234375 -15.75 C 6.304688 -14.625 5.84375 -12.820312 5.84375 -10.34375 C 5.84375 -7.875 6.304688 -6.070312 7.234375 -4.9375 C 8.171875 -3.8125 9.519531 -3.25 11.28125 -3.25 Z M 11.28125 -3.25 "/></g></g></g><g fill="#ffffff" fill-opacity="1"><g transform="translate(1174.992791, 659.401403)"><g><path d="M 7.15625 0.296875 C 5.394531 0.296875 4.097656 -0.179688 3.265625 -1.140625 C 2.429688 -2.097656 2.015625 -3.472656 2.015625 -5.265625 L 2.015625 -15.625 L 5.9375 -15.625 L 5.9375 -5.765625 C 5.9375 -4.804688 6.140625 -4.109375 6.546875 -3.671875 C 6.960938 -3.234375 7.597656 -3.015625 8.453125 -3.015625 C 9.535156 -3.015625 10.378906 -3.367188 10.984375 -4.078125 C 11.585938 -4.796875 11.890625 -5.921875 11.890625 -7.453125 L 11.890625 -15.625 L 15.8125 -15.625 L 15.8125 0 L 12.046875 0 L 12.046875 -2.296875 L 11.75 -2.359375 C 11.25 -1.460938 10.640625 -0.796875 9.921875 -0.359375 C 9.203125 0.078125 8.28125 0.296875 7.15625 0.296875 Z M 7.15625 0.296875 "/></g></g></g><g fill="#ffffff" fill-opacity="1"><g transform="translate(1193.056282, 659.401403)"><g><path d="M 4.203125 -17.484375 C 3.492188 -17.484375 2.914062 -17.695312 2.46875 -18.125 C 2.03125 -18.5625 1.8125 -19.117188 1.8125 -19.796875 C 1.8125 -20.460938 2.03125 -21.007812 2.46875 -21.4375 C 2.914062 -21.875 3.492188 -22.09375 4.203125 -22.09375 C 4.671875 -22.09375 5.085938 -21.992188 5.453125 -21.796875 C 5.828125 -21.597656 6.113281 -21.328125 6.3125 -20.984375 C 6.519531 -20.640625 6.625 -20.242188 6.625 -19.796875 C 6.625 -19.347656 6.519531 -18.945312 6.3125 -18.59375 C 6.113281 -18.25 5.828125 -17.976562 5.453125 -17.78125 C 5.085938 -17.582031 4.671875 -17.484375 4.203125 -17.484375 Z M 2.25 0 L 2.25 -15.625 L 6.171875 -15.625 L 6.171875 0 Z M 2.25 0 "/></g></g></g><g fill="#ffffff" fill-opacity="1"><g transform="translate(1201.465148, 659.401403)"><g><path d="M 13.109375 0 L 0.828125 0 L 0.828125 -3.25 L 8.390625 -12.21875 L 8.296875 -12.515625 L 1.171875 -12.515625 L 1.171875 -15.640625 L 13 -15.640625 L 13 -12.390625 L 5.4375 -3.40625 L 5.53125 -3.109375 L 13.109375 -3.109375 Z M 13.109375 0 "/></g></g></g><g clip-path="url(#cca925d8ff)"><g clip-path="url(#82d37dd27f)"><path fill="#000000" d="M 836.894531 402.78125 L 1068.816406 402.78125 L 1068.816406 518.742188 L 836.894531 518.742188 Z M 836.894531 402.78125 " fill-opacity="1" fill-rule="nonzero"/></g></g><g clip-path="url(#5ce342d2f1)"><g clip-path="url(#51aa726e9d)"><path stroke-linecap="butt" transform="matrix(0.749469, 0, 0, 0.751895, 836.893212, 402.781896)" fill="none" stroke-linejoin="miter" d="M 231.915826 -0.000858812 C 274.607486 -0.000858812 309.220515 34.609614 309.220515 77.30383 C 309.220515 119.998046 274.607486 154.608519 231.915826 154.608519 L 77.306449 154.608519 C 34.609576 154.608519 0.00176009 119.998046 0.00176009 77.30383 C 0.00176009 34.609614 34.609576 -0.000858812 77.306449 -0.000858812 L 231.915826 -0.000858812 " stroke="#ffffff" stroke-width="8" stroke-opacity="1" stroke-miterlimit="4"/></g></g><g fill="#ffffff" fill-opacity="1"><g transform="translate(875.717429, 471.031892)"><g><path d="M 11.3125 0.296875 C 9.40625 0.296875 7.722656 -0.0976562 6.265625 -0.890625 C 4.816406 -1.679688 3.679688 -2.875 2.859375 -4.46875 C 2.035156 -6.0625 1.625 -8.019531 1.625 -10.34375 C 1.625 -12.675781 2.035156 -14.640625 2.859375 -16.234375 C 3.679688 -17.828125 4.816406 -19.019531 6.265625 -19.8125 C 7.722656 -20.601562 9.40625 -21 11.3125 -21 C 13.300781 -21 14.992188 -20.609375 16.390625 -19.828125 C 17.785156 -19.046875 18.78125 -17.859375 19.375 -16.265625 L 16.390625 -14.4375 L 16.03125 -14.453125 C 15.582031 -15.535156 14.976562 -16.304688 14.21875 -16.765625 C 13.457031 -17.234375 12.488281 -17.46875 11.3125 -17.46875 C 9.59375 -17.46875 8.25 -16.898438 7.28125 -15.765625 C 6.320312 -14.628906 5.84375 -12.820312 5.84375 -10.34375 C 5.84375 -7.882812 6.320312 -6.085938 7.28125 -4.953125 C 8.25 -3.816406 9.59375 -3.25 11.3125 -3.25 C 14 -3.25 15.644531 -4.554688 16.25 -7.171875 L 16.609375 -7.171875 L 19.625 -5.59375 C 19.0625 -3.625 18.09375 -2.148438 16.71875 -1.171875 C 15.351562 -0.191406 13.550781 0.296875 11.3125 0.296875 Z M 11.3125 0.296875 "/></g></g></g><g fill="#ffffff" fill-opacity="1"><g transform="translate(896.017622, 471.031892)"><g><path d="M 9.078125 0.296875 C 7.546875 0.296875 6.203125 -0.015625 5.046875 -0.640625 C 3.890625 -1.273438 2.992188 -2.195312 2.359375 -3.40625 C 1.722656 -4.613281 1.40625 -6.078125 1.40625 -7.796875 C 1.40625 -9.515625 1.722656 -10.984375 2.359375 -12.203125 C 2.992188 -13.421875 3.890625 -14.34375 5.046875 -14.96875 C 6.203125 -15.601562 7.546875 -15.921875 9.078125 -15.921875 C 10.609375 -15.921875 11.953125 -15.601562 13.109375 -14.96875 C 14.265625 -14.34375 15.160156 -13.421875 15.796875 -12.203125 C 16.441406 -10.984375 16.765625 -9.515625 16.765625 -7.796875 C 16.765625 -6.078125 16.441406 -4.613281 15.796875 -3.40625 C 15.160156 -2.195312 14.265625 -1.273438 13.109375 -0.640625 C 11.953125 -0.015625 10.609375 0.296875 9.078125 0.296875 Z M 9.078125 -3.03125 C 11.503906 -3.03125 12.71875 -4.617188 12.71875 -7.796875 C 12.71875 -9.453125 12.40625 -10.664062 11.78125 -11.4375 C 11.15625 -12.207031 10.253906 -12.59375 9.078125 -12.59375 C 6.648438 -12.59375 5.4375 -10.992188 5.4375 -7.796875 C 5.4375 -4.617188 6.648438 -3.03125 9.078125 -3.03125 Z M 9.078125 -3.03125 "/></g></g></g><g fill="#ffffff" fill-opacity="1"><g transform="translate(914.16605, 471.031892)"><g><path d="M 2.25 0 L 2.25 -15.625 L 6.015625 -15.625 L 6.015625 -13.515625 L 6.3125 -13.46875 C 6.820312 -14.3125 7.421875 -14.929688 8.109375 -15.328125 C 8.796875 -15.722656 9.671875 -15.921875 10.734375 -15.921875 C 11.910156 -15.921875 12.859375 -15.6875 13.578125 -15.21875 C 14.296875 -14.75 14.820312 -14.066406 15.15625 -13.171875 L 15.453125 -13.171875 C 15.929688 -14.109375 16.550781 -14.800781 17.3125 -15.25 C 18.070312 -15.695312 19.019531 -15.921875 20.15625 -15.921875 C 23.382812 -15.921875 25 -14.113281 25 -10.5 L 25 0 L 21.078125 0 L 21.078125 -10.015625 C 21.078125 -10.929688 20.898438 -11.59375 20.546875 -12 C 20.191406 -12.40625 19.613281 -12.609375 18.8125 -12.609375 C 16.664062 -12.609375 15.59375 -11.164062 15.59375 -8.28125 L 15.59375 0 L 11.671875 0 L 11.671875 -10.015625 C 11.671875 -10.929688 11.488281 -11.59375 11.125 -12 C 10.757812 -12.40625 10.179688 -12.609375 9.390625 -12.609375 C 8.378906 -12.609375 7.585938 -12.269531 7.015625 -11.59375 C 6.453125 -10.914062 6.171875 -9.84375 6.171875 -8.375 L 6.171875 0 Z M 2.25 0 "/></g></g></g><g fill="#ffffff" fill-opacity="1"><g transform="translate(941.176349, 471.031892)"><g><path d="M 2.25 0 L 2.25 -15.625 L 6.015625 -15.625 L 6.015625 -13.515625 L 6.3125 -13.46875 C 6.820312 -14.3125 7.421875 -14.929688 8.109375 -15.328125 C 8.796875 -15.722656 9.671875 -15.921875 10.734375 -15.921875 C 11.910156 -15.921875 12.859375 -15.6875 13.578125 -15.21875 C 14.296875 -14.75 14.820312 -14.066406 15.15625 -13.171875 L 15.453125 -13.171875 C 15.929688 -14.109375 16.550781 -14.800781 17.3125 -15.25 C 18.070312 -15.695312 19.019531 -15.921875 20.15625 -15.921875 C 23.382812 -15.921875 25 -14.113281 25 -10.5 L 25 0 L 21.078125 0 L 21.078125 -10.015625 C 21.078125 -10.929688 20.898438 -11.59375 20.546875 -12 C 20.191406 -12.40625 19.613281 -12.609375 18.8125 -12.609375 C 16.664062 -12.609375 15.59375 -11.164062 15.59375 -8.28125 L 15.59375 0 L 11.671875 0 L 11.671875 -10.015625 C 11.671875 -10.929688 11.488281 -11.59375 11.125 -12 C 10.757812 -12.40625 10.179688 -12.609375 9.390625 -12.609375 C 8.378906 -12.609375 7.585938 -12.269531 7.015625 -11.59375 C 6.453125 -10.914062 6.171875 -9.84375 6.171875 -8.375 L 6.171875 0 Z M 2.25 0 "/></g></g></g><g fill="#ffffff" fill-opacity="1"><g transform="translate(968.186647, 471.031892)"><g><path d="M 15.4375 -6.921875 L 5.390625 -6.921875 C 5.503906 -5.566406 5.890625 -4.578125 6.546875 -3.953125 C 7.210938 -3.335938 8.117188 -3.03125 9.265625 -3.03125 C 10.160156 -3.03125 10.882812 -3.195312 11.4375 -3.53125 C 12 -3.863281 12.445312 -4.375 12.78125 -5.0625 L 13.078125 -5.0625 L 15.6875 -3.390625 C 15.175781 -2.285156 14.40625 -1.394531 13.375 -0.71875 C 12.351562 -0.0390625 10.984375 0.296875 9.265625 0.296875 C 7.648438 0.296875 6.253906 -0.0078125 5.078125 -0.625 C 3.898438 -1.238281 2.992188 -2.148438 2.359375 -3.359375 C 1.722656 -4.578125 1.40625 -6.054688 1.40625 -7.796875 C 1.40625 -9.578125 1.738281 -11.078125 2.40625 -12.296875 C 3.070312 -13.515625 3.976562 -14.421875 5.125 -15.015625 C 6.269531 -15.617188 7.554688 -15.921875 8.984375 -15.921875 C 11.191406 -15.921875 12.878906 -15.332031 14.046875 -14.15625 C 15.222656 -12.988281 15.8125 -11.269531 15.8125 -9 C 15.8125 -8.1875 15.785156 -7.550781 15.734375 -7.09375 Z M 12.0625 -9.453125 C 12.03125 -10.648438 11.753906 -11.519531 11.234375 -12.0625 C 10.722656 -12.601562 9.972656 -12.875 8.984375 -12.875 C 6.992188 -12.875 5.828125 -11.734375 5.484375 -9.453125 Z M 12.0625 -9.453125 "/></g></g></g><g fill="#ffffff" fill-opacity="1"><g transform="translate(985.160099, 471.031892)"><g><path d="M 2.25 0 L 2.25 -15.625 L 6.015625 -15.625 L 6.015625 -13.328125 L 6.3125 -13.25 C 7.289062 -15.03125 8.867188 -15.921875 11.046875 -15.921875 C 12.847656 -15.921875 14.171875 -15.425781 15.015625 -14.4375 C 15.859375 -13.457031 16.28125 -12.03125 16.28125 -10.15625 L 16.28125 0 L 12.359375 0 L 12.359375 -9.671875 C 12.359375 -10.710938 12.148438 -11.460938 11.734375 -11.921875 C 11.316406 -12.378906 10.65625 -12.609375 9.75 -12.609375 C 8.625 -12.609375 7.742188 -12.242188 7.109375 -11.515625 C 6.484375 -10.785156 6.171875 -9.640625 6.171875 -8.078125 L 6.171875 0 Z M 2.25 0 "/></g></g></g><g fill="#ffffff" fill-opacity="1"><g transform="translate(1003.450092, 471.031892)"><g><path d="M 10.78125 -3.71875 L 11.796875 -0.828125 C 11.367188 -0.472656 10.832031 -0.195312 10.1875 0 C 9.550781 0.195312 8.828125 0.296875 8.015625 0.296875 C 6.328125 0.296875 5.039062 -0.160156 4.15625 -1.078125 C 3.28125 -2.003906 2.84375 -3.34375 2.84375 -5.09375 L 2.84375 -12.515625 L 0.46875 -12.515625 L 0.46875 -15.640625 L 2.84375 -15.640625 L 2.84375 -18.671875 L 6.765625 -19.3125 L 6.765625 -15.640625 L 11.203125 -15.640625 L 11.203125 -12.515625 L 6.765625 -12.515625 L 6.765625 -5.375 C 6.765625 -4.601562 6.925781 -4.039062 7.25 -3.6875 C 7.570312 -3.332031 8.039062 -3.15625 8.65625 -3.15625 C 9.351562 -3.15625 9.960938 -3.34375 10.484375 -3.71875 Z M 10.78125 -3.71875 "/></g></g></g><g fill="#ffffff" fill-opacity="1"><g transform="translate(1015.582076, 471.031892)"><g><path d="M 7.3125 0.296875 C 6.238281 0.296875 5.257812 0.171875 4.375 -0.078125 C 3.488281 -0.328125 2.726562 -0.671875 2.09375 -1.109375 C 1.46875 -1.546875 1.003906 -2.050781 0.703125 -2.625 L 2.890625 -4.96875 L 3.1875 -4.96875 C 3.707031 -4.269531 4.320312 -3.742188 5.03125 -3.390625 C 5.738281 -3.046875 6.503906 -2.875 7.328125 -2.875 C 8.097656 -2.875 8.675781 -3.007812 9.0625 -3.28125 C 9.445312 -3.5625 9.640625 -3.953125 9.640625 -4.453125 C 9.640625 -4.859375 9.5 -5.191406 9.21875 -5.453125 C 8.945312 -5.722656 8.5 -5.9375 7.875 -6.09375 L 5.8125 -6.578125 C 4.257812 -6.953125 3.125 -7.519531 2.40625 -8.28125 C 1.695312 -9.039062 1.34375 -10.003906 1.34375 -11.171875 C 1.34375 -12.140625 1.585938 -12.984375 2.078125 -13.703125 C 2.578125 -14.421875 3.273438 -14.96875 4.171875 -15.34375 C 5.078125 -15.726562 6.128906 -15.921875 7.328125 -15.921875 C 8.734375 -15.921875 9.898438 -15.71875 10.828125 -15.3125 C 11.753906 -14.90625 12.476562 -14.359375 13 -13.671875 L 10.90625 -11.40625 L 10.625 -11.40625 C 10.1875 -11.90625 9.695312 -12.265625 9.15625 -12.484375 C 8.613281 -12.710938 8.003906 -12.828125 7.328125 -12.828125 C 5.785156 -12.828125 5.015625 -12.347656 5.015625 -11.390625 C 5.015625 -10.984375 5.15625 -10.648438 5.4375 -10.390625 C 5.726562 -10.140625 6.238281 -9.929688 6.96875 -9.765625 L 8.890625 -9.34375 C 10.472656 -9.007812 11.628906 -8.460938 12.359375 -7.703125 C 13.097656 -6.953125 13.46875 -5.945312 13.46875 -4.6875 C 13.46875 -3.695312 13.222656 -2.820312 12.734375 -2.0625 C 12.242188 -1.3125 11.535156 -0.726562 10.609375 -0.3125 C 9.679688 0.09375 8.582031 0.296875 7.3125 0.296875 Z M 7.3125 0.296875 "/></g></g></g><g clip-path="url(#88c60e464b)"><g clip-path="url(#fdc02175ca)"><path fill="#000000" d="M 620.066406 589.023438 L 863.308594 589.023438 L 863.308594 710.644531 L 620.066406 710.644531 Z M 620.066406 589.023438 " fill-opacity="1" fill-rule="nonzero"/></g></g><g clip-path="url(#2a9bfc54af)"><g clip-path="url(#add3caf9e9)"><path stroke-linecap="butt" transform="matrix(0.749277, 0, 0, 0.749277, 620.066519, 589.02215)" fill="none" stroke-linejoin="miter" d="M 243.234223 0.00171783 C 288.011744 0.00171783 324.312347 36.302321 324.312347 81.079842 C 324.312347 125.857364 288.011744 162.157967 243.234223 162.157967 L 81.077974 162.157967 C 36.300453 162.157967 -0.000150515 125.857364 -0.000150515 81.079842 C -0.000150515 36.302321 36.300453 0.00171783 81.077974 0.00171783 L 243.234223 0.00171783 " stroke="#ffffff" stroke-width="8" stroke-opacity="1" stroke-miterlimit="4"/></g></g><g fill="#ffffff" fill-opacity="1"><g transform="translate(714.144639, 660.272147)"><g><path d="M 2.6875 0 L 2.6875 -20.703125 L 11.53125 -20.703125 C 12.800781 -20.703125 13.878906 -20.5 14.765625 -20.09375 C 15.648438 -19.695312 16.316406 -19.128906 16.765625 -18.390625 C 17.222656 -17.648438 17.453125 -16.773438 17.453125 -15.765625 C 17.453125 -14.847656 17.226562 -14.039062 16.78125 -13.34375 C 16.332031 -12.644531 15.695312 -12.082031 14.875 -11.65625 L 14.875 -11.359375 C 16.175781 -11.015625 17.179688 -10.394531 17.890625 -9.5 C 18.597656 -8.601562 18.953125 -7.503906 18.953125 -6.203125 C 18.953125 -4.222656 18.351562 -2.691406 17.15625 -1.609375 C 15.957031 -0.535156 14.1875 0 11.84375 0 Z M 10.671875 -12.453125 C 12.578125 -12.453125 13.53125 -13.3125 13.53125 -15.03125 C 13.53125 -15.90625 13.296875 -16.554688 12.828125 -16.984375 C 12.359375 -17.410156 11.640625 -17.625 10.671875 -17.625 L 6.78125 -17.625 L 6.78125 -12.453125 Z M 11.421875 -3.25 C 13.679688 -3.25 14.8125 -4.269531 14.8125 -6.3125 C 14.8125 -8.375 13.679688 -9.40625 11.421875 -9.40625 L 6.78125 -9.40625 L 6.78125 -3.25 Z M 11.421875 -3.25 "/></g></g></g><g fill="#ffffff" fill-opacity="1"><g transform="translate(734.388207, 660.272147)"><g><path d="M 7.15625 0.296875 C 5.394531 0.296875 4.097656 -0.179688 3.265625 -1.140625 C 2.429688 -2.097656 2.015625 -3.472656 2.015625 -5.265625 L 2.015625 -15.625 L 5.9375 -15.625 L 5.9375 -5.765625 C 5.9375 -4.804688 6.140625 -4.109375 6.546875 -3.671875 C 6.960938 -3.234375 7.597656 -3.015625 8.453125 -3.015625 C 9.535156 -3.015625 10.378906 -3.367188 10.984375 -4.078125 C 11.585938 -4.796875 11.890625 -5.921875 11.890625 -7.453125 L 11.890625 -15.625 L 15.8125 -15.625 L 15.8125 0 L 12.046875 0 L 12.046875 -2.296875 L 11.75 -2.359375 C 11.25 -1.460938 10.640625 -0.796875 9.921875 -0.359375 C 9.203125 0.078125 8.28125 0.296875 7.15625 0.296875 Z M 7.15625 0.296875 "/></g></g></g><g fill="#ffffff" fill-opacity="1"><g transform="translate(752.451698, 660.272147)"><g><path d="M 3.453125 6.625 C 2.785156 6.625 2.179688 6.570312 1.640625 6.46875 C 1.097656 6.363281 0.65625 6.226562 0.3125 6.0625 L 0.9375 2.890625 L 1.1875 2.796875 C 1.425781 2.921875 1.71875 3.019531 2.0625 3.09375 C 2.414062 3.175781 2.773438 3.21875 3.140625 3.21875 C 3.773438 3.21875 4.300781 3.132812 4.71875 2.96875 C 5.144531 2.800781 5.503906 2.523438 5.796875 2.140625 C 6.085938 1.765625 6.347656 1.234375 6.578125 0.546875 L 0.34375 -15.625 L 4.453125 -15.625 L 8.328125 -4.765625 L 8.671875 -4.765625 L 12.453125 -15.625 L 16.4375 -15.625 L 10.171875 0.984375 C 9.671875 2.316406 9.117188 3.390625 8.515625 4.203125 C 7.921875 5.023438 7.210938 5.632812 6.390625 6.03125 C 5.578125 6.425781 4.597656 6.625 3.453125 6.625 Z M 3.453125 6.625 "/></g></g></g><path stroke-linecap="butt" transform="matrix(0.749777, 0.00668568, -0.0066874, 0.74997, 97.345585, 299.34235)" fill="none" stroke-linejoin="miter" d="M 30.000464 4.00022 L 1610.428152 4.000445 " stroke="#000000" stroke-width="8" stroke-opacity="1" stroke-miterlimit="4"/><path stroke-linecap="butt" transform="matrix(5.998218, 0.0534855, -0.0534992, 5.999761, 97.318845, 302.342232)" fill-opacity="1" fill="#000000" fill-rule="nonzero" stroke-linejoin="miter" d="M 3.499985 0.000303299 C 3.50021 0.0986125 3.490662 0.196358 3.471335 0.292888 C 3.452008 0.389418 3.423535 0.482775 3.385928 0.57426 C 3.348315 0.665093 3.302196 0.751445 3.24692 0.833322 C 3.192296 0.915192 3.130456 0.991267 3.060743 1.060902 C 2.991031 1.130536 2.915388 1.192411 2.83317 1.247183 C 2.751603 1.301948 2.664751 1.348297 2.57391 1.385567 C 2.483076 1.423487 2.389549 1.451666 2.292691 1.47141 C 2.195828 1.490504 2.098226 1.499838 1.999891 1.500063 C 1.901557 1.500289 1.80378 1.490092 1.707231 1.471421 C 1.610676 1.452099 1.517295 1.423633 1.425787 1.386036 C 1.33493 1.348433 1.24855 1.301675 1.166659 1.247064 C 1.084767 1.192454 1.008672 1.130629 0.93902 1.060935 C 0.870018 0.991235 0.807471 0.914966 0.752691 0.83342 C 0.697905 0.751223 0.65155 0.665044 0.614271 0.574227 C 0.576335 0.482765 0.548149 0.389262 0.529051 0.292424 C 0.509307 0.196242 0.499971 0.0986647 0.499739 -0.000295558 C 0.500165 -0.0986106 0.509713 -0.196356 0.52904 -0.292886 C 0.547716 -0.389411 0.576189 -0.482767 0.614447 -0.574258 C 0.65206 -0.665091 0.698179 -0.751443 0.752804 -0.833314 C 0.807428 -0.915184 0.86992 -0.991265 0.939632 -1.0609 C 1.008693 -1.130529 1.084987 -1.192409 1.166554 -1.247175 C 1.248772 -1.301946 1.334973 -1.348289 1.425814 -1.385559 C 1.516648 -1.42348 1.610826 -1.451664 1.707684 -1.471408 C 1.803897 -1.490496 1.901499 -1.49983 1.999833 -1.500056 C 2.098168 -1.500281 2.195944 -1.490085 2.292493 -1.471413 C 2.389048 -1.452091 2.48308 -1.423631 2.573937 -1.386028 C 2.664794 -1.348425 2.751174 -1.301667 2.833066 -1.247056 C 2.914957 -1.192446 2.991052 -1.130622 3.060704 -1.060927 C 3.130357 -0.991233 3.192253 -0.914959 3.247033 -0.833413 C 3.301819 -0.751215 3.348174 -0.665037 3.386104 -0.574225 C 3.423389 -0.482757 3.452226 -0.38926 3.471324 -0.292422 C 3.490417 -0.196234 3.499753 -0.0986569 3.499985 0.000303299 Z M 3.499985 0.000303299 " stroke="#000000" stroke-width="1" stroke-opacity="1" stroke-miterlimit="4"/><path stroke-linecap="butt" transform="matrix(5.998218, 0.0534855, -0.0534992, 5.999761, 1327.275515, 313.309634)" fill-opacity="1" fill="#000000" fill-rule="nonzero" stroke-linejoin="miter" d="M -0.499846 -0.0002749 C -0.500266 0.0986911 -0.50982 0.195785 -0.529147 0.292316 C -0.547817 0.389491 -0.57629 0.482848 -0.613897 0.574332 C -0.652161 0.665172 -0.69828 0.751524 -0.752905 0.833394 C -0.807529 0.915265 -0.869375 0.990689 -0.939082 1.060974 C -1.008794 1.130609 -1.084437 1.192484 -1.166655 1.247255 C -1.248222 1.302021 -1.335074 1.34837 -1.425915 1.38564 C -1.516749 1.42356 -1.610927 1.451745 -1.707134 1.471483 C -1.803998 1.490577 -1.9016 1.499911 -1.999934 1.500136 C -2.098274 1.499711 -2.196045 1.490165 -2.292594 1.471494 C -2.389149 1.452172 -2.483181 1.423712 -2.574038 1.386109 C -2.664901 1.347855 -2.751275 1.301748 -2.833167 1.247137 C -2.915058 1.192526 -2.991158 1.130051 -3.060811 1.060357 C -3.130458 0.991313 -3.192354 0.915039 -3.247134 0.833493 C -3.30192 0.751296 -3.348275 0.665117 -3.385554 0.5743 C -3.42349 0.482838 -3.451676 0.389335 -3.471425 0.292502 C -3.490518 0.196314 -3.499854 0.0987375 -3.500086 -0.000222742 C -3.500311 -0.0985319 -3.490112 -0.196283 -3.471436 -0.292807 C -3.452109 -0.389338 -3.423642 -0.483345 -3.386029 -0.574179 C -3.348416 -0.665013 -3.301646 -0.751371 -3.247021 -0.833241 C -3.192397 -0.915111 -3.130557 -0.991186 -3.060844 -1.060821 C -2.991132 -1.130456 -2.915489 -1.19233 -2.833271 -1.247102 C -2.751704 -1.301868 -2.664852 -1.348217 -2.574017 -1.386137 C -2.483177 -1.423407 -2.389005 -1.452242 -2.292792 -1.47133 C -2.195928 -1.490423 -2.098326 -1.499757 -1.999992 -1.499983 C -1.901658 -1.500208 -1.803887 -1.490663 -1.707332 -1.47134 C -1.610777 -1.452018 -1.516745 -1.423558 -1.425888 -1.385955 C -1.335031 -1.348352 -1.248657 -1.302245 -1.16676 -1.246984 C -1.084868 -1.192373 -1.008773 -1.130549 -0.939121 -1.060854 C -0.869468 -0.99116 -0.807578 -0.915537 -0.752792 -0.83334 C -0.698006 -0.751143 -0.651651 -0.664964 -0.614372 -0.574147 C -0.576442 -0.483335 -0.54825 -0.389182 -0.528501 -0.292349 C -0.509408 -0.196161 -0.500072 -0.0985841 -0.499846 -0.0002749 Z M -0.499846 -0.0002749 " stroke="#000000" stroke-width="1" stroke-opacity="1" stroke-miterlimit="4"/><path stroke-linecap="butt" transform="matrix(0.000000000000000046, 0.748077, -0.75, 0.000000000000000046, 109.310216, 303.257758)" fill="none" stroke-linejoin="miter" d="M 0.0000734637 4.002163 L 154.40649 4.002163 " stroke="#000000" stroke-width="8" stroke-opacity="1" stroke-miterlimit="4"/><path stroke-linecap="round" transform="matrix(0.000000000000000366, 5.984612, -6, 0.000000000000000367, 106.310216, 421.759103)" fill="none" stroke-linejoin="round" d="M -2.500117 -1.49973 L -0.500196 0.000270387 L -2.500117 1.50027 " stroke="#000000" stroke-width="1" stroke-opacity="1" stroke-miterlimit="4"/><path stroke-linecap="butt" transform="matrix(0.000000000000000046, 0.749107, -0.75, 0.000000000000000046, 334.844989, 303.260806)" fill="none" stroke-linejoin="miter" d="M 0.00121906 4.001653 L 376.465247 4.001653 " stroke="#000000" stroke-width="8" stroke-opacity="1" stroke-miterlimit="4"/><path stroke-linecap="round" transform="matrix(0.000000000000000367, 5.992853, -6, 0.000000000000000367, 331.84499, 588.268166)" fill="none" stroke-linejoin="round" d="M -2.500146 -1.499793 L -0.499717 0.000206588 L -2.500146 1.500207 " stroke="#000000" stroke-width="1" stroke-opacity="1" stroke-miterlimit="4"/><path stroke-linecap="butt" transform="matrix(0.000000000000000046, 0.75, -0.75, 0.000000000000000046, 527.040388, 302.670005)" fill="none" stroke-linejoin="miter" d="M 0.00249364 4.001767 L 128.0025 4.001767 " stroke="#000000" stroke-width="8" stroke-opacity="1" stroke-miterlimit="4"/><path stroke-linecap="round" transform="matrix(0.000000000000000367, 6, -6, 0.000000000000000367, 524.040388, 401.671817)" fill="none" stroke-linejoin="round" d="M -2.49999 -1.499779 L -0.49999 0.000220893 L -2.49999 1.500221 " stroke="#000000" stroke-width="1" stroke-opacity="1" stroke-miterlimit="4"/><path stroke-linecap="butt" transform="matrix(0.000000000000000046, 0.75, -0.75, 0.000000000000000046, 744.683705, 309.267602)" fill="none" stroke-linejoin="miter" d="M 0.00257228 4.000148 L 369.013008 4.000148 " stroke="#000000" stroke-width="8" stroke-opacity="1" stroke-miterlimit="4"/><path stroke-linecap="round" transform="matrix(0.000000000000000367, 6, -6, 0.000000000000000367, 741.683705, 589.026662)" fill="none" stroke-linejoin="round" d="M -2.499887 -1.499982 L -0.499886 0.0000185265 L -2.499887 1.500019 " stroke="#000000" stroke-width="1" stroke-opacity="1" stroke-miterlimit="4"/><path stroke-linecap="butt" transform="matrix(0.000000000000000046, 0.75188, -0.75, 0.000000000000000046, 955.853454, 309.264703)" fill="none" stroke-linejoin="miter" d="M 0.00122647 4.002522 L 120.693536 4.002522 " stroke="#000000" stroke-width="8" stroke-opacity="1" stroke-miterlimit="4"/><path stroke-linecap="round" transform="matrix(0.000000000000000368, 6.015037, -6, 0.000000000000000367, 952.853454, 403.017912)" fill="none" stroke-linejoin="round" d="M -2.499975 -1.499685 L -0.49978 0.000315298 L -2.499975 1.500315 " stroke="#000000" stroke-width="1" stroke-opacity="1" stroke-miterlimit="4"/><path stroke-linecap="butt" transform="matrix(0.000000000000000046, 0.748414, -0.75, 0.000000000000000046, 1327.618523, 314.094321)" fill="none" stroke-linejoin="miter" d="M -0.000762944 4.001781 L 114.251208 4.001781 " stroke="#000000" stroke-width="8" stroke-opacity="1" stroke-miterlimit="4"/><path stroke-linecap="round" transform="matrix(0.000000000000000367, 5.987314, -6, 0.000000000000000367, 1324.618524, 402.594492)" fill="none" stroke-linejoin="round" d="M -2.500201 -1.499777 L -0.499878 0.00022268 L -2.500201 1.500223 " stroke="#000000" stroke-width="1" stroke-opacity="1" stroke-miterlimit="4"/><path stroke-linecap="butt" transform="matrix(-0.00480477, 0.750543, -0.749985, -0.00480119, 726.400338, 244.818905)" fill="none" stroke-linejoin="miter" d="M 0.0014233 3.997398 L 79.943564 4.000886 " stroke="#000000" stroke-width="8" stroke-opacity="1" stroke-miterlimit="4"/><path stroke-linecap="round" transform="matrix(-0.0384381, 6.004344, -5.999877, -0.0384095, 722.99709, 307.801704)" fill="none" stroke-linejoin="round" d="M -2.500134 -1.500124 L -0.499791 0.000112651 L -2.499809 1.499935 " stroke="#000000" stroke-width="1" stroke-opacity="1" stroke-miterlimit="4"/><g clip-path="url(#6b50fabc9a)"><g clip-path="url(#95428eeaf7)"><path fill="#000000" d="M 1227.316406 403.828125 L 1440 403.828125 L 1440 510.171875 L 1227.316406 510.171875 Z M 1227.316406 403.828125 " fill-opacity="1" fill-rule="nonzero"/></g></g><g clip-path="url(#ac35a85d03)"><g clip-path="url(#1c73d7bae4)"><path stroke-linecap="butt" transform="matrix(0.751116, 0, 0, 0.751157, 1227.3208, 403.828488)" fill="none" stroke-linejoin="miter" d="M 212.672541 -0.000482834 C 251.822631 -0.000482834 283.561871 31.737007 283.561871 70.890138 C 283.561871 110.04327 251.822631 141.780759 212.672541 141.780759 L 70.88868 141.780759 C 31.73859 141.780759 -0.00064967 110.04327 -0.00064967 70.890138 C -0.00064967 31.737007 31.73859 -0.000482834 70.88868 -0.000482834 L 212.672541 -0.000482834 " stroke="#ffffff" stroke-width="8" stroke-opacity="1" stroke-miterlimit="4"/></g></g><g fill="#ffffff" fill-opacity="1"><g transform="translate(1268.459474, 467.578484)"><g><path d="M 19.859375 0 L 15.5625 0 L 14 -4.765625 L 6.078125 -4.765625 L 4.515625 0 L 0.3125 0 L 7.46875 -20.703125 L 12.71875 -20.703125 Z M 9.84375 -16.390625 L 7.171875 -8.21875 L 12.875 -8.21875 L 10.203125 -16.390625 Z M 9.84375 -16.390625 "/></g></g></g><g fill="#ffffff" fill-opacity="1"><g transform="translate(1288.632259, 467.578484)"><g><path d="M 10.921875 0.296875 C 8.929688 0.296875 7.445312 -0.445312 6.46875 -1.9375 L 6.171875 -1.890625 L 6.171875 0 L 2.25 0 L 2.25 -21.890625 L 6.171875 -21.890625 L 6.171875 -13.78125 L 6.46875 -13.71875 C 7.007812 -14.46875 7.644531 -15.019531 8.375 -15.375 C 9.101562 -15.738281 9.976562 -15.921875 11 -15.921875 C 12.269531 -15.921875 13.375 -15.617188 14.3125 -15.015625 C 15.257812 -14.421875 15.992188 -13.519531 16.515625 -12.3125 C 17.046875 -11.101562 17.3125 -9.597656 17.3125 -7.796875 C 17.3125 -6.023438 17.035156 -4.53125 16.484375 -3.3125 C 15.941406 -2.101562 15.1875 -1.195312 14.21875 -0.59375 C 13.257812 0 12.160156 0.296875 10.921875 0.296875 Z M 9.734375 -3.03125 C 10.878906 -3.03125 11.753906 -3.414062 12.359375 -4.1875 C 12.960938 -4.957031 13.265625 -6.160156 13.265625 -7.796875 C 13.265625 -9.453125 12.960938 -10.664062 12.359375 -11.4375 C 11.753906 -12.207031 10.878906 -12.59375 9.734375 -12.59375 C 8.628906 -12.59375 7.75 -12.191406 7.09375 -11.390625 C 6.445312 -10.597656 6.125 -9.398438 6.125 -7.796875 C 6.125 -6.191406 6.445312 -4.992188 7.09375 -4.203125 C 7.75 -3.421875 8.628906 -3.03125 9.734375 -3.03125 Z M 9.734375 -3.03125 "/></g></g></g><g fill="#ffffff" fill-opacity="1"><g transform="translate(1307.332785, 467.578484)"><g><path d="M 9.078125 0.296875 C 7.546875 0.296875 6.203125 -0.015625 5.046875 -0.640625 C 3.890625 -1.273438 2.992188 -2.195312 2.359375 -3.40625 C 1.722656 -4.613281 1.40625 -6.078125 1.40625 -7.796875 C 1.40625 -9.515625 1.722656 -10.984375 2.359375 -12.203125 C 2.992188 -13.421875 3.890625 -14.34375 5.046875 -14.96875 C 6.203125 -15.601562 7.546875 -15.921875 9.078125 -15.921875 C 10.609375 -15.921875 11.953125 -15.601562 13.109375 -14.96875 C 14.265625 -14.34375 15.160156 -13.421875 15.796875 -12.203125 C 16.441406 -10.984375 16.765625 -9.515625 16.765625 -7.796875 C 16.765625 -6.078125 16.441406 -4.613281 15.796875 -3.40625 C 15.160156 -2.195312 14.265625 -1.273438 13.109375 -0.640625 C 11.953125 -0.015625 10.609375 0.296875 9.078125 0.296875 Z M 9.078125 -3.03125 C 11.503906 -3.03125 12.71875 -4.617188 12.71875 -7.796875 C 12.71875 -9.453125 12.40625 -10.664062 11.78125 -11.4375 C 11.15625 -12.207031 10.253906 -12.59375 9.078125 -12.59375 C 6.648438 -12.59375 5.4375 -10.992188 5.4375 -7.796875 C 5.4375 -4.617188 6.648438 -3.03125 9.078125 -3.03125 Z M 9.078125 -3.03125 "/></g></g></g><g fill="#ffffff" fill-opacity="1"><g transform="translate(1325.481214, 467.578484)"><g><path d="M 7.15625 0.296875 C 5.394531 0.296875 4.097656 -0.179688 3.265625 -1.140625 C 2.429688 -2.097656 2.015625 -3.472656 2.015625 -5.265625 L 2.015625 -15.625 L 5.9375 -15.625 L 5.9375 -5.765625 C 5.9375 -4.804688 6.140625 -4.109375 6.546875 -3.671875 C 6.960938 -3.234375 7.597656 -3.015625 8.453125 -3.015625 C 9.535156 -3.015625 10.378906 -3.367188 10.984375 -4.078125 C 11.585938 -4.796875 11.890625 -5.921875 11.890625 -7.453125 L 11.890625 -15.625 L 15.8125 -15.625 L 15.8125 0 L 12.046875 0 L 12.046875 -2.296875 L 11.75 -2.359375 C 11.25 -1.460938 10.640625 -0.796875 9.921875 -0.359375 C 9.203125 0.078125 8.28125 0.296875 7.15625 0.296875 Z M 7.15625 0.296875 "/></g></g></g><g fill="#ffffff" fill-opacity="1"><g transform="translate(1343.544705, 467.578484)"><g><path d="M 10.78125 -3.71875 L 11.796875 -0.828125 C 11.367188 -0.472656 10.832031 -0.195312 10.1875 0 C 9.550781 0.195312 8.828125 0.296875 8.015625 0.296875 C 6.328125 0.296875 5.039062 -0.160156 4.15625 -1.078125 C 3.28125 -2.003906 2.84375 -3.34375 2.84375 -5.09375 L 2.84375 -12.515625 L 0.46875 -12.515625 L 0.46875 -15.640625 L 2.84375 -15.640625 L 2.84375 -18.671875 L 6.765625 -19.3125 L 6.765625 -15.640625 L 11.203125 -15.640625 L 11.203125 -12.515625 L 6.765625 -12.515625 L 6.765625 -5.375 C 6.765625 -4.601562 6.925781 -4.039062 7.25 -3.6875 C 7.570312 -3.332031 8.039062 -3.15625 8.65625 -3.15625 C 9.351562 -3.15625 9.960938 -3.34375 10.484375 -3.71875 Z M 10.78125 -3.71875 "/></g></g></g><g fill="#ffffff" fill-opacity="1"><g transform="translate(1355.676689, 467.578484)"><g/></g></g><g fill="#ffffff" fill-opacity="1"><g transform="translate(1362.514202, 467.578484)"><g><path d="M 10.96875 0.296875 C 8.125 0.296875 6.007812 -0.378906 4.625 -1.734375 C 3.25 -3.085938 2.5625 -5.097656 2.5625 -7.765625 L 2.5625 -20.703125 L 6.578125 -20.703125 L 6.578125 -7.78125 C 6.578125 -6.269531 6.9375 -5.132812 7.65625 -4.375 C 8.382812 -3.625 9.488281 -3.25 10.96875 -3.25 C 13.90625 -3.25 15.375 -4.757812 15.375 -7.78125 L 15.375 -20.703125 L 19.390625 -20.703125 L 19.390625 -7.765625 C 19.390625 -5.097656 18.695312 -3.085938 17.3125 -1.734375 C 15.9375 -0.378906 13.820312 0.296875 10.96875 0.296875 Z M 10.96875 0.296875 "/></g></g></g><g fill="#ffffff" fill-opacity="1"><g transform="translate(1384.45653, 467.578484)"><g><path d="M 7.3125 0.296875 C 6.238281 0.296875 5.257812 0.171875 4.375 -0.078125 C 3.488281 -0.328125 2.726562 -0.671875 2.09375 -1.109375 C 1.46875 -1.546875 1.003906 -2.050781 0.703125 -2.625 L 2.890625 -4.96875 L 3.1875 -4.96875 C 3.707031 -4.269531 4.320312 -3.742188 5.03125 -3.390625 C 5.738281 -3.046875 6.503906 -2.875 7.328125 -2.875 C 8.097656 -2.875 8.675781 -3.007812 9.0625 -3.28125 C 9.445312 -3.5625 9.640625 -3.953125 9.640625 -4.453125 C 9.640625 -4.859375 9.5 -5.191406 9.21875 -5.453125 C 8.945312 -5.722656 8.5 -5.9375 7.875 -6.09375 L 5.8125 -6.578125 C 4.257812 -6.953125 3.125 -7.519531 2.40625 -8.28125 C 1.695312 -9.039062 1.34375 -10.003906 1.34375 -11.171875 C 1.34375 -12.140625 1.585938 -12.984375 2.078125 -13.703125 C 2.578125 -14.421875 3.273438 -14.96875 4.171875 -15.34375 C 5.078125 -15.726562 6.128906 -15.921875 7.328125 -15.921875 C 8.734375 -15.921875 9.898438 -15.71875 10.828125 -15.3125 C 11.753906 -14.90625 12.476562 -14.359375 13 -13.671875 L 10.90625 -11.40625 L 10.625 -11.40625 C 10.1875 -11.90625 9.695312 -12.265625 9.15625 -12.484375 C 8.613281 -12.710938 8.003906 -12.828125 7.328125 -12.828125 C 5.785156 -12.828125 5.015625 -12.347656 5.015625 -11.390625 C 5.015625 -10.984375 5.15625 -10.648438 5.4375 -10.390625 C 5.726562 -10.140625 6.238281 -9.929688 6.96875 -9.765625 L 8.890625 -9.34375 C 10.472656 -9.007812 11.628906 -8.460938 12.359375 -7.703125 C 13.097656 -6.953125 13.46875 -5.945312 13.46875 -4.6875 C 13.46875 -3.695312 13.222656 -2.820312 12.734375 -2.0625 C 12.242188 -1.3125 11.535156 -0.726562 10.609375 -0.3125 C 9.679688 0.09375 8.582031 0.296875 7.3125 0.296875 Z M 7.3125 0.296875 "/></g></g></g><path stroke-linecap="butt" transform="matrix(0.000000000000000046, 0.750631, -0.75, 0.000000000000000046, 1186.915387, 312.380923)" fill="none" stroke-linejoin="miter" d="M 0.00251764 4.001766 L 367.698597 4.001766 " stroke="#000000" stroke-width="8" stroke-opacity="1" stroke-miterlimit="4"/><path stroke-linecap="round" transform="matrix(0.000000000000000368, 6.005044, -6, 0.000000000000000367, 1183.915387, 591.390758)" fill="none" stroke-linejoin="round" d="M -2.499874 -1.499779 L -0.500253 0.000220694 L -2.499874 1.500221 " stroke="#000000" stroke-width="1" stroke-opacity="1" stroke-miterlimit="4"/></svg>